%TF.GenerationSoftware,KiCad,Pcbnew,(6.0.1)*%
%TF.CreationDate,2022-11-09T22:58:21+01:00*%
%TF.ProjectId,stepgen_differential_bob,73746570-6765-46e5-9f64-696666657265,rev?*%
%TF.SameCoordinates,Original*%
%TF.FileFunction,Paste,Top*%
%TF.FilePolarity,Positive*%
%FSLAX46Y46*%
G04 Gerber Fmt 4.6, Leading zero omitted, Abs format (unit mm)*
G04 Created by KiCad (PCBNEW (6.0.1)) date 2022-11-09 22:58:21*
%MOMM*%
%LPD*%
G01*
G04 APERTURE LIST*
G04 Aperture macros list*
%AMRoundRect*
0 Rectangle with rounded corners*
0 $1 Rounding radius*
0 $2 $3 $4 $5 $6 $7 $8 $9 X,Y pos of 4 corners*
0 Add a 4 corners polygon primitive as box body*
4,1,4,$2,$3,$4,$5,$6,$7,$8,$9,$2,$3,0*
0 Add four circle primitives for the rounded corners*
1,1,$1+$1,$2,$3*
1,1,$1+$1,$4,$5*
1,1,$1+$1,$6,$7*
1,1,$1+$1,$8,$9*
0 Add four rect primitives between the rounded corners*
20,1,$1+$1,$2,$3,$4,$5,0*
20,1,$1+$1,$4,$5,$6,$7,0*
20,1,$1+$1,$6,$7,$8,$9,0*
20,1,$1+$1,$8,$9,$2,$3,0*%
G04 Aperture macros list end*
%ADD10RoundRect,0.150000X0.837500X0.150000X-0.837500X0.150000X-0.837500X-0.150000X0.837500X-0.150000X0*%
%ADD11RoundRect,0.250000X-0.650000X0.412500X-0.650000X-0.412500X0.650000X-0.412500X0.650000X0.412500X0*%
%ADD12RoundRect,0.249999X-0.450001X-1.075001X0.450001X-1.075001X0.450001X1.075001X-0.450001X1.075001X0*%
%ADD13RoundRect,0.249999X1.075001X-0.450001X1.075001X0.450001X-1.075001X0.450001X-1.075001X-0.450001X0*%
%ADD14RoundRect,0.249999X-1.075001X0.450001X-1.075001X-0.450001X1.075001X-0.450001X1.075001X0.450001X0*%
G04 APERTURE END LIST*
D10*
%TO.C,U1*%
X45641500Y-28702000D03*
X45641500Y-27432000D03*
X45641500Y-26162000D03*
X45641500Y-24892000D03*
X45641500Y-23622000D03*
X45641500Y-22352000D03*
X45641500Y-21082000D03*
X38716500Y-21082000D03*
X38716500Y-22352000D03*
X38716500Y-23622000D03*
X38716500Y-24892000D03*
X38716500Y-26162000D03*
X38716500Y-27432000D03*
X38716500Y-28702000D03*
%TD*%
D11*
%TO.C,C2*%
X23114000Y-31457500D03*
X23114000Y-34582500D03*
%TD*%
D12*
%TO.C,R4*%
X77356000Y-39116000D03*
X82156000Y-39116000D03*
%TD*%
D13*
%TO.C,R10*%
X18049000Y-6210000D03*
X18049000Y-1410000D03*
%TD*%
%TO.C,R9*%
X48529000Y-6210000D03*
X48529000Y-1410000D03*
%TD*%
D11*
%TO.C,C1*%
X38608000Y-31457500D03*
X38608000Y-34582500D03*
%TD*%
D12*
%TO.C,R3*%
X2680000Y-39116000D03*
X7480000Y-39116000D03*
%TD*%
D13*
%TO.C,R14*%
X34544000Y-30848000D03*
X34544000Y-26048000D03*
%TD*%
D14*
%TO.C,R13*%
X34544000Y-18682000D03*
X34544000Y-23482000D03*
%TD*%
D13*
%TO.C,R11*%
X24145000Y-6210000D03*
X24145000Y-1410000D03*
%TD*%
%TO.C,R7*%
X36337000Y-6200000D03*
X36337000Y-1400000D03*
%TD*%
D12*
%TO.C,R6*%
X77356000Y-32512000D03*
X82156000Y-32512000D03*
%TD*%
D13*
%TO.C,R8*%
X42433000Y-6200000D03*
X42433000Y-1400000D03*
%TD*%
D12*
%TO.C,R1*%
X2680000Y-32512000D03*
X7480000Y-32512000D03*
%TD*%
D13*
%TO.C,R12*%
X30241000Y-6210000D03*
X30241000Y-1410000D03*
%TD*%
D10*
%TO.C,U2*%
X30147500Y-28702000D03*
X30147500Y-27432000D03*
X30147500Y-26162000D03*
X30147500Y-24892000D03*
X30147500Y-23622000D03*
X30147500Y-22352000D03*
X30147500Y-21082000D03*
X23222500Y-21082000D03*
X23222500Y-22352000D03*
X23222500Y-23622000D03*
X23222500Y-24892000D03*
X23222500Y-26162000D03*
X23222500Y-27432000D03*
X23222500Y-28702000D03*
%TD*%
D12*
%TO.C,R5*%
X2680000Y-45466000D03*
X7480000Y-45466000D03*
%TD*%
%TO.C,R2*%
X77356000Y-45466000D03*
X82156000Y-45466000D03*
%TD*%
D14*
%TO.C,R15*%
X19050000Y-18682000D03*
X19050000Y-23482000D03*
%TD*%
M02*
