%FSLAX45Y45*%
G04 Gerber Fmt 4.5, Leading zero omitted, Abs format (unit mm)*
G04 Created by KiCad (PCBNEW (6.0.1)) date 2022-11-09 23:02:25*
%MOMM*%
%LPD*%
G01*
G04 APERTURE LIST*
%TA.AperFunction,Profile*%
%ADD10C,0.200000*%
%TD*%
%ADD11C,0.200000*%
%ADD12C,0.030000*%
%ADD13C,0.080000*%
%ADD14C,0.088900*%
%ADD15C,0.100000*%
%ADD16C,0.101600*%
%ADD17C,0.120000*%
%ADD18C,0.165100*%
G04 APERTURE END LIST*
D10*
X0Y0D02*
X8500000Y0D01*
X8500000Y0D02*
X8500000Y-5600000D01*
X8500000Y-5600000D02*
X0Y-5600000D01*
X0Y-5600000D02*
X0Y0D01*
D11*
D12*
X239000Y-3033000D02*
X269000Y-3063000D01*
X269000Y-3033000D02*
X239000Y-3063000D01*
X239000Y-3693400D02*
X269000Y-3723400D01*
X269000Y-3693400D02*
X239000Y-3723400D01*
X239000Y-4328400D02*
X269000Y-4358400D01*
X269000Y-4328400D02*
X239000Y-4358400D01*
X493000Y-874000D02*
X523000Y-904000D01*
X523000Y-874000D02*
X493000Y-904000D01*
X569200Y-1331200D02*
X599200Y-1361200D01*
X599200Y-1331200D02*
X569200Y-1361200D01*
X645400Y-1763000D02*
X675400Y-1793000D01*
X675400Y-1763000D02*
X645400Y-1793000D01*
X1128000Y-5039600D02*
X1158000Y-5069600D01*
X1158000Y-5039600D02*
X1128000Y-5069600D01*
X1661400Y-5039600D02*
X1691400Y-5069600D01*
X1691400Y-5039600D02*
X1661400Y-5069600D01*
X1991600Y-4887200D02*
X2021600Y-4917200D01*
X2021600Y-4887200D02*
X1991600Y-4917200D01*
X2067800Y-2601200D02*
X2097800Y-2631200D01*
X2097800Y-2601200D02*
X2067800Y-2631200D01*
X2118600Y-3591800D02*
X2148600Y-3621800D01*
X2148600Y-3591800D02*
X2118600Y-3621800D01*
X2144000Y-2093200D02*
X2174000Y-2123200D01*
X2174000Y-2093200D02*
X2144000Y-2123200D01*
X2855200Y-2220200D02*
X2885200Y-2250200D01*
X2885200Y-2220200D02*
X2855200Y-2250200D01*
X2855200Y-2601200D02*
X2885200Y-2631200D01*
X2885200Y-2601200D02*
X2855200Y-2631200D01*
X2982200Y-3693400D02*
X3012200Y-3723400D01*
X3012200Y-3693400D02*
X2982200Y-3723400D01*
X3083800Y-5014200D02*
X3113800Y-5044200D01*
X3113800Y-5014200D02*
X3083800Y-5044200D01*
X3185400Y-1661400D02*
X3215400Y-1691400D01*
X3215400Y-1661400D02*
X3185400Y-1691400D01*
X3210800Y-2347200D02*
X3240800Y-2377200D01*
X3240800Y-2347200D02*
X3210800Y-2377200D01*
X3210800Y-3033000D02*
X3240800Y-3063000D01*
X3240800Y-3033000D02*
X3210800Y-3063000D01*
X3388600Y-3566400D02*
X3418600Y-3596400D01*
X3418600Y-3566400D02*
X3388600Y-3596400D01*
X3718800Y-3642600D02*
X3748800Y-3672600D01*
X3748800Y-3642600D02*
X3718800Y-3672600D01*
X3972800Y-3642600D02*
X4002800Y-3672600D01*
X4002800Y-3642600D02*
X3972800Y-3672600D01*
X3999700Y-2347200D02*
X4029700Y-2377200D01*
X4029700Y-2347200D02*
X3999700Y-2377200D01*
X4252200Y-4938000D02*
X4282200Y-4968000D01*
X4282200Y-4938000D02*
X4252200Y-4968000D01*
X4406100Y-2347200D02*
X4436100Y-2377200D01*
X4436100Y-2347200D02*
X4406100Y-2377200D01*
X4406100Y-2728200D02*
X4436100Y-2758200D01*
X4436100Y-2728200D02*
X4406100Y-2758200D01*
X4938000Y-3541000D02*
X4968000Y-3571000D01*
X4968000Y-3541000D02*
X4938000Y-3571000D01*
X5117300Y-1661400D02*
X5147300Y-1691400D01*
X5147300Y-1661400D02*
X5117300Y-1691400D01*
X5395200Y-4861800D02*
X5425200Y-4891800D01*
X5425200Y-4861800D02*
X5395200Y-4891800D01*
X5420600Y-5293600D02*
X5450600Y-5323600D01*
X5450600Y-5293600D02*
X5420600Y-5323600D01*
X6512800Y-3693400D02*
X6542800Y-3723400D01*
X6542800Y-3693400D02*
X6512800Y-3723400D01*
X6512800Y-4887200D02*
X6542800Y-4917200D01*
X6542800Y-4887200D02*
X6512800Y-4917200D01*
X6512800Y-5319000D02*
X6542800Y-5349000D01*
X6542800Y-5319000D02*
X6512800Y-5349000D01*
X6589000Y-1610600D02*
X6619000Y-1640600D01*
X6619000Y-1610600D02*
X6589000Y-1640600D01*
X7732000Y-4887200D02*
X7762000Y-4917200D01*
X7762000Y-4887200D02*
X7732000Y-4917200D01*
D13*
X2503800Y-915400D02*
G75*
G03*
X2503800Y-915400I-40000J0D01*
G01*
X2503800Y-1677400D02*
G75*
G03*
X2503800Y-1677400I-40000J0D01*
G01*
X2757800Y-915400D02*
G75*
G03*
X2757800Y-915400I-40000J0D01*
G01*
X2757800Y-1677400D02*
G75*
G03*
X2757800Y-1677400I-40000J0D01*
G01*
X3011800Y-915400D02*
G75*
G03*
X3011800Y-915400I-40000J0D01*
G01*
X3011800Y-1677400D02*
G75*
G03*
X3011800Y-1677400I-40000J0D01*
G01*
X4027800Y-914400D02*
G75*
G03*
X4027800Y-914400I-40000J0D01*
G01*
X4027800Y-1676400D02*
G75*
G03*
X4027800Y-1676400I-40000J0D01*
G01*
X4281800Y-914400D02*
G75*
G03*
X4281800Y-914400I-40000J0D01*
G01*
X4281800Y-1676400D02*
G75*
G03*
X4281800Y-1676400I-40000J0D01*
G01*
X4535800Y-914400D02*
G75*
G03*
X4535800Y-914400I-40000J0D01*
G01*
X4535800Y-1676400D02*
G75*
G03*
X4535800Y-1676400I-40000J0D01*
G01*
D14*
X1498600Y-4179650D02*
X1498600Y-4268550D01*
X1454150Y-4224100D02*
X1543050Y-4224100D01*
X1625600Y-3925650D02*
X1625600Y-4014550D01*
X1581150Y-3970100D02*
X1670050Y-3970100D01*
X1752600Y-4179650D02*
X1752600Y-4268550D01*
X1708150Y-4224100D02*
X1797050Y-4224100D01*
X1879600Y-3925650D02*
X1879600Y-4014550D01*
X1835150Y-3970100D02*
X1924050Y-3970100D01*
X2006600Y-4179650D02*
X2006600Y-4268550D01*
X1962150Y-4224100D02*
X2051050Y-4224100D01*
X2133600Y-3925650D02*
X2133600Y-4014550D01*
X2089150Y-3970100D02*
X2178050Y-3970100D01*
X2260600Y-4179650D02*
X2260600Y-4268550D01*
X2216150Y-4224100D02*
X2305050Y-4224100D01*
X2387600Y-3925650D02*
X2387600Y-4014550D01*
X2343150Y-3970100D02*
X2432050Y-3970100D01*
X3810000Y-4171950D02*
X3810000Y-4260850D01*
X3765550Y-4216400D02*
X3854450Y-4216400D01*
X3937000Y-3917950D02*
X3937000Y-4006850D01*
X3892550Y-3962400D02*
X3981450Y-3962400D01*
X4064000Y-4171950D02*
X4064000Y-4260850D01*
X4019550Y-4216400D02*
X4108450Y-4216400D01*
X4191000Y-3917950D02*
X4191000Y-4006850D01*
X4146550Y-3962400D02*
X4235450Y-3962400D01*
X4318000Y-4171950D02*
X4318000Y-4260850D01*
X4273550Y-4216400D02*
X4362450Y-4216400D01*
X4445000Y-3917950D02*
X4445000Y-4006850D01*
X4400550Y-3962400D02*
X4489450Y-3962400D01*
X4572000Y-4171950D02*
X4572000Y-4260850D01*
X4527550Y-4216400D02*
X4616450Y-4216400D01*
X4699000Y-3917950D02*
X4699000Y-4006850D01*
X4654550Y-3962400D02*
X4743450Y-3962400D01*
X6096000Y-4171950D02*
X6096000Y-4260850D01*
X6051550Y-4216400D02*
X6140450Y-4216400D01*
X6223000Y-3917950D02*
X6223000Y-4006850D01*
X6178550Y-3962400D02*
X6267450Y-3962400D01*
X6350000Y-4171950D02*
X6350000Y-4260850D01*
X6305550Y-4216400D02*
X6394450Y-4216400D01*
X6477000Y-3917950D02*
X6477000Y-4006850D01*
X6432550Y-3962400D02*
X6521450Y-3962400D01*
X6604000Y-4171950D02*
X6604000Y-4260850D01*
X6559550Y-4216400D02*
X6648450Y-4216400D01*
X6731000Y-3917950D02*
X6731000Y-4006850D01*
X6686550Y-3962400D02*
X6775450Y-3962400D01*
X6858000Y-4171950D02*
X6858000Y-4260850D01*
X6813550Y-4216400D02*
X6902450Y-4216400D01*
X6985000Y-3917950D02*
X6985000Y-4006850D01*
X6940550Y-3962400D02*
X7029450Y-3962400D01*
D15*
X1254056Y-1230656D02*
X1254056Y-1159944D01*
X1183344Y-1159944D01*
X1183344Y-1230656D01*
X1254056Y-1230656D01*
X1254056Y-1484656D02*
X1254056Y-1413944D01*
X1183344Y-1413944D01*
X1183344Y-1484656D01*
X1254056Y-1484656D01*
X1254056Y-1738656D02*
X1254056Y-1667944D01*
X1183344Y-1667944D01*
X1183344Y-1738656D01*
X1254056Y-1738656D01*
X1254056Y-1992656D02*
X1254056Y-1921944D01*
X1183344Y-1921944D01*
X1183344Y-1992656D01*
X1254056Y-1992656D01*
X1254056Y-2246656D02*
X1254056Y-2175944D01*
X1183344Y-2175944D01*
X1183344Y-2246656D01*
X1254056Y-2246656D01*
X1254056Y-2500656D02*
X1254056Y-2429944D01*
X1183344Y-2429944D01*
X1183344Y-2500656D01*
X1254056Y-2500656D01*
X1254056Y-2754656D02*
X1254056Y-2683944D01*
X1183344Y-2683944D01*
X1183344Y-2754656D01*
X1254056Y-2754656D01*
X1254056Y-3008656D02*
X1254056Y-2937944D01*
X1183344Y-2937944D01*
X1183344Y-3008656D01*
X1254056Y-3008656D01*
X1508056Y-1230656D02*
X1508056Y-1159944D01*
X1437344Y-1159944D01*
X1437344Y-1230656D01*
X1508056Y-1230656D01*
X1508056Y-1484656D02*
X1508056Y-1413944D01*
X1437344Y-1413944D01*
X1437344Y-1484656D01*
X1508056Y-1484656D01*
X1508056Y-1738656D02*
X1508056Y-1667944D01*
X1437344Y-1667944D01*
X1437344Y-1738656D01*
X1508056Y-1738656D01*
X1508056Y-1992656D02*
X1508056Y-1921944D01*
X1437344Y-1921944D01*
X1437344Y-1992656D01*
X1508056Y-1992656D01*
X1508056Y-2246656D02*
X1508056Y-2175944D01*
X1437344Y-2175944D01*
X1437344Y-2246656D01*
X1508056Y-2246656D01*
X1508056Y-2500656D02*
X1508056Y-2429944D01*
X1437344Y-2429944D01*
X1437344Y-2500656D01*
X1508056Y-2500656D01*
X1508056Y-2754656D02*
X1508056Y-2683944D01*
X1437344Y-2683944D01*
X1437344Y-2754656D01*
X1508056Y-2754656D01*
X1508056Y-3008656D02*
X1508056Y-2937944D01*
X1437344Y-2937944D01*
X1437344Y-3008656D01*
X1508056Y-3008656D01*
X5419656Y-1230656D02*
X5419656Y-1159944D01*
X5348944Y-1159944D01*
X5348944Y-1230656D01*
X5419656Y-1230656D01*
X5419656Y-1484656D02*
X5419656Y-1413944D01*
X5348944Y-1413944D01*
X5348944Y-1484656D01*
X5419656Y-1484656D01*
X5419656Y-1738656D02*
X5419656Y-1667944D01*
X5348944Y-1667944D01*
X5348944Y-1738656D01*
X5419656Y-1738656D01*
X5419656Y-1992656D02*
X5419656Y-1921944D01*
X5348944Y-1921944D01*
X5348944Y-1992656D01*
X5419656Y-1992656D01*
X5419656Y-2246656D02*
X5419656Y-2175944D01*
X5348944Y-2175944D01*
X5348944Y-2246656D01*
X5419656Y-2246656D01*
X5419656Y-2500656D02*
X5419656Y-2429944D01*
X5348944Y-2429944D01*
X5348944Y-2500656D01*
X5419656Y-2500656D01*
X5419656Y-2754656D02*
X5419656Y-2683944D01*
X5348944Y-2683944D01*
X5348944Y-2754656D01*
X5419656Y-2754656D01*
X5419656Y-3008656D02*
X5419656Y-2937944D01*
X5348944Y-2937944D01*
X5348944Y-3008656D01*
X5419656Y-3008656D01*
X5673656Y-1230656D02*
X5673656Y-1159944D01*
X5602944Y-1159944D01*
X5602944Y-1230656D01*
X5673656Y-1230656D01*
X5673656Y-1484656D02*
X5673656Y-1413944D01*
X5602944Y-1413944D01*
X5602944Y-1484656D01*
X5673656Y-1484656D01*
X5673656Y-1738656D02*
X5673656Y-1667944D01*
X5602944Y-1667944D01*
X5602944Y-1738656D01*
X5673656Y-1738656D01*
X5673656Y-1992656D02*
X5673656Y-1921944D01*
X5602944Y-1921944D01*
X5602944Y-1992656D01*
X5673656Y-1992656D01*
X5673656Y-2246656D02*
X5673656Y-2175944D01*
X5602944Y-2175944D01*
X5602944Y-2246656D01*
X5673656Y-2246656D01*
X5673656Y-2500656D02*
X5673656Y-2429944D01*
X5602944Y-2429944D01*
X5602944Y-2500656D01*
X5673656Y-2500656D01*
X5673656Y-2754656D02*
X5673656Y-2683944D01*
X5602944Y-2683944D01*
X5602944Y-2754656D01*
X5673656Y-2754656D01*
X5673656Y-3008656D02*
X5673656Y-2937944D01*
X5602944Y-2937944D01*
X5602944Y-3008656D01*
X5673656Y-3008656D01*
X6969056Y-1230656D02*
X6969056Y-1159944D01*
X6898344Y-1159944D01*
X6898344Y-1230656D01*
X6969056Y-1230656D01*
X6969056Y-1484656D02*
X6969056Y-1413944D01*
X6898344Y-1413944D01*
X6898344Y-1484656D01*
X6969056Y-1484656D01*
X6969056Y-1738656D02*
X6969056Y-1667944D01*
X6898344Y-1667944D01*
X6898344Y-1738656D01*
X6969056Y-1738656D01*
X6969056Y-1992656D02*
X6969056Y-1921944D01*
X6898344Y-1921944D01*
X6898344Y-1992656D01*
X6969056Y-1992656D01*
X6969056Y-2246656D02*
X6969056Y-2175944D01*
X6898344Y-2175944D01*
X6898344Y-2246656D01*
X6969056Y-2246656D01*
X6969056Y-2500656D02*
X6969056Y-2429944D01*
X6898344Y-2429944D01*
X6898344Y-2500656D01*
X6969056Y-2500656D01*
X6969056Y-2754656D02*
X6969056Y-2683944D01*
X6898344Y-2683944D01*
X6898344Y-2754656D01*
X6969056Y-2754656D01*
X6969056Y-3008656D02*
X6969056Y-2937944D01*
X6898344Y-2937944D01*
X6898344Y-3008656D01*
X6969056Y-3008656D01*
X7223056Y-1230656D02*
X7223056Y-1159944D01*
X7152344Y-1159944D01*
X7152344Y-1230656D01*
X7223056Y-1230656D01*
X7223056Y-1484656D02*
X7223056Y-1413944D01*
X7152344Y-1413944D01*
X7152344Y-1484656D01*
X7223056Y-1484656D01*
X7223056Y-1738656D02*
X7223056Y-1667944D01*
X7152344Y-1667944D01*
X7152344Y-1738656D01*
X7223056Y-1738656D01*
X7223056Y-1992656D02*
X7223056Y-1921944D01*
X7152344Y-1921944D01*
X7152344Y-1992656D01*
X7223056Y-1992656D01*
X7223056Y-2246656D02*
X7223056Y-2175944D01*
X7152344Y-2175944D01*
X7152344Y-2246656D01*
X7223056Y-2246656D01*
X7223056Y-2500656D02*
X7223056Y-2429944D01*
X7152344Y-2429944D01*
X7152344Y-2500656D01*
X7223056Y-2500656D01*
X7223056Y-2754656D02*
X7223056Y-2683944D01*
X7152344Y-2683944D01*
X7152344Y-2754656D01*
X7223056Y-2754656D01*
X7223056Y-3008656D02*
X7223056Y-2937944D01*
X7152344Y-2937944D01*
X7152344Y-3008656D01*
X7223056Y-3008656D01*
D16*
X1310640Y-5321380D02*
X1361440Y-5270580D01*
X1310640Y-5219780D01*
X1259840Y-5270580D01*
X1310640Y-5321380D01*
X1562100Y-5321380D02*
X1612900Y-5270580D01*
X1562100Y-5219780D01*
X1511300Y-5270580D01*
X1562100Y-5321380D01*
X2321560Y-5321380D02*
X2372360Y-5270580D01*
X2321560Y-5219780D01*
X2270760Y-5270580D01*
X2321560Y-5321380D01*
X2573020Y-5321380D02*
X2623820Y-5270580D01*
X2573020Y-5219780D01*
X2522220Y-5270580D01*
X2573020Y-5321380D01*
X3622040Y-5313680D02*
X3672840Y-5262880D01*
X3622040Y-5212080D01*
X3571240Y-5262880D01*
X3622040Y-5313680D01*
X3873500Y-5313680D02*
X3924300Y-5262880D01*
X3873500Y-5212080D01*
X3822700Y-5262880D01*
X3873500Y-5313680D01*
X4632960Y-5313680D02*
X4683760Y-5262880D01*
X4632960Y-5212080D01*
X4582160Y-5262880D01*
X4632960Y-5313680D01*
X4884420Y-5313680D02*
X4935220Y-5262880D01*
X4884420Y-5212080D01*
X4833620Y-5262880D01*
X4884420Y-5313680D01*
X5908040Y-5313680D02*
X5958840Y-5262880D01*
X5908040Y-5212080D01*
X5857240Y-5262880D01*
X5908040Y-5313680D01*
X6159500Y-5313680D02*
X6210300Y-5262880D01*
X6159500Y-5212080D01*
X6108700Y-5262880D01*
X6159500Y-5313680D01*
X6918960Y-5313680D02*
X6969760Y-5262880D01*
X6918960Y-5212080D01*
X6868160Y-5262880D01*
X6918960Y-5313680D01*
X7170420Y-5313680D02*
X7221220Y-5262880D01*
X7170420Y-5212080D01*
X7119620Y-5262880D01*
X7170420Y-5313680D01*
D17*
X7941000Y-1037800D02*
X8061000Y-1157800D01*
X8061000Y-1037800D02*
X7941000Y-1157800D01*
X8061000Y-1097800D02*
G75*
G03*
X8061000Y-1097800I-60000J0D01*
G01*
X7941000Y-1387800D02*
X8061000Y-1507800D01*
X8061000Y-1387800D02*
X7941000Y-1507800D01*
X8061000Y-1447800D02*
G75*
G03*
X8061000Y-1447800I-60000J0D01*
G01*
D18*
X1073150Y-4387930D02*
X1238250Y-4553030D01*
X1238250Y-4387930D02*
X1073150Y-4553030D01*
X1155700Y-4387930D02*
X1155700Y-4553030D01*
X1073150Y-4470480D02*
X1238250Y-4470480D01*
X2647950Y-4387930D02*
X2813050Y-4553030D01*
X2813050Y-4387930D02*
X2647950Y-4553030D01*
X2730500Y-4387930D02*
X2730500Y-4553030D01*
X2647950Y-4470480D02*
X2813050Y-4470480D01*
X3384550Y-4380230D02*
X3549650Y-4545330D01*
X3549650Y-4380230D02*
X3384550Y-4545330D01*
X3467100Y-4380230D02*
X3467100Y-4545330D01*
X3384550Y-4462780D02*
X3549650Y-4462780D01*
X4959350Y-4380230D02*
X5124450Y-4545330D01*
X5124450Y-4380230D02*
X4959350Y-4545330D01*
X5041900Y-4380230D02*
X5041900Y-4545330D01*
X4959350Y-4462780D02*
X5124450Y-4462780D01*
X5670550Y-4380230D02*
X5835650Y-4545330D01*
X5835650Y-4380230D02*
X5670550Y-4545330D01*
X5753100Y-4380230D02*
X5753100Y-4545330D01*
X5670550Y-4462780D02*
X5835650Y-4462780D01*
X7245350Y-4380230D02*
X7410450Y-4545330D01*
X7410450Y-4380230D02*
X7245350Y-4545330D01*
X7327900Y-4380230D02*
X7327900Y-4545330D01*
X7245350Y-4462780D02*
X7410450Y-4462780D01*
D11*
X247619Y-5920476D02*
X247619Y-5720476D01*
X295238Y-5720476D01*
X323810Y-5730000D01*
X342857Y-5749048D01*
X352381Y-5768095D01*
X361905Y-5806190D01*
X361905Y-5834762D01*
X352381Y-5872857D01*
X342857Y-5891905D01*
X323810Y-5910952D01*
X295238Y-5920476D01*
X247619Y-5920476D01*
X447619Y-5920476D02*
X447619Y-5787143D01*
X447619Y-5825238D02*
X457143Y-5806190D01*
X466667Y-5796667D01*
X485714Y-5787143D01*
X504762Y-5787143D01*
X571429Y-5920476D02*
X571429Y-5787143D01*
X571429Y-5720476D02*
X561905Y-5730000D01*
X571429Y-5739524D01*
X580952Y-5730000D01*
X571429Y-5720476D01*
X571429Y-5739524D01*
X695238Y-5920476D02*
X676190Y-5910952D01*
X666667Y-5891905D01*
X666667Y-5720476D01*
X800000Y-5920476D02*
X780952Y-5910952D01*
X771428Y-5891905D01*
X771428Y-5720476D01*
X1028571Y-5920476D02*
X1028571Y-5720476D01*
X1095238Y-5863333D01*
X1161905Y-5720476D01*
X1161905Y-5920476D01*
X1342857Y-5920476D02*
X1342857Y-5815714D01*
X1333333Y-5796667D01*
X1314286Y-5787143D01*
X1276190Y-5787143D01*
X1257143Y-5796667D01*
X1342857Y-5910952D02*
X1323810Y-5920476D01*
X1276190Y-5920476D01*
X1257143Y-5910952D01*
X1247619Y-5891905D01*
X1247619Y-5872857D01*
X1257143Y-5853809D01*
X1276190Y-5844286D01*
X1323810Y-5844286D01*
X1342857Y-5834762D01*
X1438095Y-5787143D02*
X1438095Y-5987143D01*
X1438095Y-5796667D02*
X1457143Y-5787143D01*
X1495238Y-5787143D01*
X1514286Y-5796667D01*
X1523809Y-5806190D01*
X1533333Y-5825238D01*
X1533333Y-5882381D01*
X1523809Y-5901428D01*
X1514286Y-5910952D01*
X1495238Y-5920476D01*
X1457143Y-5920476D01*
X1438095Y-5910952D01*
X1619048Y-5901428D02*
X1628571Y-5910952D01*
X1619048Y-5920476D01*
X1609524Y-5910952D01*
X1619048Y-5901428D01*
X1619048Y-5920476D01*
X1619048Y-5796667D02*
X1628571Y-5806190D01*
X1619048Y-5815714D01*
X1609524Y-5806190D01*
X1619048Y-5796667D01*
X1619048Y-5815714D01*
D12*
X-40000Y-6235000D02*
X-10000Y-6265000D01*
X-10000Y-6235000D02*
X-40000Y-6265000D01*
D11*
X285714Y-6140476D02*
X304762Y-6140476D01*
X323810Y-6150000D01*
X333333Y-6159524D01*
X342857Y-6178571D01*
X352381Y-6216667D01*
X352381Y-6264286D01*
X342857Y-6302381D01*
X333333Y-6321428D01*
X323810Y-6330952D01*
X304762Y-6340476D01*
X285714Y-6340476D01*
X266667Y-6330952D01*
X257143Y-6321428D01*
X247619Y-6302381D01*
X238095Y-6264286D01*
X238095Y-6216667D01*
X247619Y-6178571D01*
X257143Y-6159524D01*
X266667Y-6150000D01*
X285714Y-6140476D01*
X438095Y-6321428D02*
X447619Y-6330952D01*
X438095Y-6340476D01*
X428571Y-6330952D01*
X438095Y-6321428D01*
X438095Y-6340476D01*
X514286Y-6140476D02*
X638095Y-6140476D01*
X571429Y-6216667D01*
X600000Y-6216667D01*
X619048Y-6226190D01*
X628571Y-6235714D01*
X638095Y-6254762D01*
X638095Y-6302381D01*
X628571Y-6321428D01*
X619048Y-6330952D01*
X600000Y-6340476D01*
X542857Y-6340476D01*
X523809Y-6330952D01*
X514286Y-6321428D01*
X761905Y-6140476D02*
X780952Y-6140476D01*
X800000Y-6150000D01*
X809524Y-6159524D01*
X819048Y-6178571D01*
X828571Y-6216667D01*
X828571Y-6264286D01*
X819048Y-6302381D01*
X809524Y-6321428D01*
X800000Y-6330952D01*
X780952Y-6340476D01*
X761905Y-6340476D01*
X742857Y-6330952D01*
X733333Y-6321428D01*
X723809Y-6302381D01*
X714286Y-6264286D01*
X714286Y-6216667D01*
X723809Y-6178571D01*
X733333Y-6159524D01*
X742857Y-6150000D01*
X761905Y-6140476D01*
X952381Y-6140476D02*
X971428Y-6140476D01*
X990476Y-6150000D01*
X1000000Y-6159524D01*
X1009524Y-6178571D01*
X1019048Y-6216667D01*
X1019048Y-6264286D01*
X1009524Y-6302381D01*
X1000000Y-6321428D01*
X990476Y-6330952D01*
X971428Y-6340476D01*
X952381Y-6340476D01*
X933333Y-6330952D01*
X923809Y-6321428D01*
X914286Y-6302381D01*
X904762Y-6264286D01*
X904762Y-6216667D01*
X914286Y-6178571D01*
X923809Y-6159524D01*
X933333Y-6150000D01*
X952381Y-6140476D01*
X1104762Y-6340476D02*
X1104762Y-6207143D01*
X1104762Y-6226190D02*
X1114286Y-6216667D01*
X1133333Y-6207143D01*
X1161905Y-6207143D01*
X1180952Y-6216667D01*
X1190476Y-6235714D01*
X1190476Y-6340476D01*
X1190476Y-6235714D02*
X1200000Y-6216667D01*
X1219048Y-6207143D01*
X1247619Y-6207143D01*
X1266667Y-6216667D01*
X1276190Y-6235714D01*
X1276190Y-6340476D01*
X1371429Y-6340476D02*
X1371429Y-6207143D01*
X1371429Y-6226190D02*
X1380952Y-6216667D01*
X1400000Y-6207143D01*
X1428571Y-6207143D01*
X1447619Y-6216667D01*
X1457143Y-6235714D01*
X1457143Y-6340476D01*
X1457143Y-6235714D02*
X1466667Y-6216667D01*
X1485714Y-6207143D01*
X1514286Y-6207143D01*
X1533333Y-6216667D01*
X1542857Y-6235714D01*
X1542857Y-6340476D01*
X1933333Y-6130952D02*
X1761905Y-6388095D01*
X2190476Y-6140476D02*
X2209524Y-6140476D01*
X2228571Y-6150000D01*
X2238095Y-6159524D01*
X2247619Y-6178571D01*
X2257143Y-6216667D01*
X2257143Y-6264286D01*
X2247619Y-6302381D01*
X2238095Y-6321428D01*
X2228571Y-6330952D01*
X2209524Y-6340476D01*
X2190476Y-6340476D01*
X2171429Y-6330952D01*
X2161905Y-6321428D01*
X2152381Y-6302381D01*
X2142857Y-6264286D01*
X2142857Y-6216667D01*
X2152381Y-6178571D01*
X2161905Y-6159524D01*
X2171429Y-6150000D01*
X2190476Y-6140476D01*
X2342857Y-6321428D02*
X2352381Y-6330952D01*
X2342857Y-6340476D01*
X2333333Y-6330952D01*
X2342857Y-6321428D01*
X2342857Y-6340476D01*
X2476190Y-6140476D02*
X2495238Y-6140476D01*
X2514286Y-6150000D01*
X2523810Y-6159524D01*
X2533333Y-6178571D01*
X2542857Y-6216667D01*
X2542857Y-6264286D01*
X2533333Y-6302381D01*
X2523810Y-6321428D01*
X2514286Y-6330952D01*
X2495238Y-6340476D01*
X2476190Y-6340476D01*
X2457143Y-6330952D01*
X2447619Y-6321428D01*
X2438095Y-6302381D01*
X2428571Y-6264286D01*
X2428571Y-6216667D01*
X2438095Y-6178571D01*
X2447619Y-6159524D01*
X2457143Y-6150000D01*
X2476190Y-6140476D01*
X2733333Y-6340476D02*
X2619048Y-6340476D01*
X2676190Y-6340476D02*
X2676190Y-6140476D01*
X2657143Y-6169048D01*
X2638095Y-6188095D01*
X2619048Y-6197619D01*
X2923809Y-6340476D02*
X2809524Y-6340476D01*
X2866667Y-6340476D02*
X2866667Y-6140476D01*
X2847619Y-6169048D01*
X2828571Y-6188095D01*
X2809524Y-6197619D01*
X3038095Y-6226190D02*
X3019048Y-6216667D01*
X3009524Y-6207143D01*
X3000000Y-6188095D01*
X3000000Y-6178571D01*
X3009524Y-6159524D01*
X3019048Y-6150000D01*
X3038095Y-6140476D01*
X3076190Y-6140476D01*
X3095238Y-6150000D01*
X3104762Y-6159524D01*
X3114286Y-6178571D01*
X3114286Y-6188095D01*
X3104762Y-6207143D01*
X3095238Y-6216667D01*
X3076190Y-6226190D01*
X3038095Y-6226190D01*
X3019048Y-6235714D01*
X3009524Y-6245238D01*
X3000000Y-6264286D01*
X3000000Y-6302381D01*
X3009524Y-6321428D01*
X3019048Y-6330952D01*
X3038095Y-6340476D01*
X3076190Y-6340476D01*
X3095238Y-6330952D01*
X3104762Y-6321428D01*
X3114286Y-6302381D01*
X3114286Y-6264286D01*
X3104762Y-6245238D01*
X3095238Y-6235714D01*
X3076190Y-6226190D01*
X3190476Y-6140476D02*
X3190476Y-6178571D01*
X3266667Y-6140476D02*
X3266667Y-6178571D01*
X3561905Y-6416667D02*
X3552381Y-6407143D01*
X3533333Y-6378571D01*
X3523809Y-6359524D01*
X3514286Y-6330952D01*
X3504762Y-6283333D01*
X3504762Y-6245238D01*
X3514286Y-6197619D01*
X3523809Y-6169048D01*
X3533333Y-6150000D01*
X3552381Y-6121428D01*
X3561905Y-6111905D01*
X3619048Y-6140476D02*
X3742857Y-6140476D01*
X3676190Y-6216667D01*
X3704762Y-6216667D01*
X3723809Y-6226190D01*
X3733333Y-6235714D01*
X3742857Y-6254762D01*
X3742857Y-6302381D01*
X3733333Y-6321428D01*
X3723809Y-6330952D01*
X3704762Y-6340476D01*
X3647619Y-6340476D01*
X3628571Y-6330952D01*
X3619048Y-6321428D01*
X3923809Y-6140476D02*
X3828571Y-6140476D01*
X3819048Y-6235714D01*
X3828571Y-6226190D01*
X3847619Y-6216667D01*
X3895238Y-6216667D01*
X3914286Y-6226190D01*
X3923809Y-6235714D01*
X3933333Y-6254762D01*
X3933333Y-6302381D01*
X3923809Y-6321428D01*
X3914286Y-6330952D01*
X3895238Y-6340476D01*
X3847619Y-6340476D01*
X3828571Y-6330952D01*
X3819048Y-6321428D01*
X4171428Y-6340476D02*
X4171428Y-6140476D01*
X4257143Y-6340476D02*
X4257143Y-6235714D01*
X4247619Y-6216667D01*
X4228571Y-6207143D01*
X4200000Y-6207143D01*
X4180952Y-6216667D01*
X4171428Y-6226190D01*
X4380952Y-6340476D02*
X4361905Y-6330952D01*
X4352381Y-6321428D01*
X4342857Y-6302381D01*
X4342857Y-6245238D01*
X4352381Y-6226190D01*
X4361905Y-6216667D01*
X4380952Y-6207143D01*
X4409524Y-6207143D01*
X4428571Y-6216667D01*
X4438095Y-6226190D01*
X4447619Y-6245238D01*
X4447619Y-6302381D01*
X4438095Y-6321428D01*
X4428571Y-6330952D01*
X4409524Y-6340476D01*
X4380952Y-6340476D01*
X4561905Y-6340476D02*
X4542857Y-6330952D01*
X4533333Y-6311905D01*
X4533333Y-6140476D01*
X4714286Y-6330952D02*
X4695238Y-6340476D01*
X4657143Y-6340476D01*
X4638095Y-6330952D01*
X4628571Y-6311905D01*
X4628571Y-6235714D01*
X4638095Y-6216667D01*
X4657143Y-6207143D01*
X4695238Y-6207143D01*
X4714286Y-6216667D01*
X4723810Y-6235714D01*
X4723810Y-6254762D01*
X4628571Y-6273809D01*
X4800000Y-6330952D02*
X4819048Y-6340476D01*
X4857143Y-6340476D01*
X4876190Y-6330952D01*
X4885714Y-6311905D01*
X4885714Y-6302381D01*
X4876190Y-6283333D01*
X4857143Y-6273809D01*
X4828571Y-6273809D01*
X4809524Y-6264286D01*
X4800000Y-6245238D01*
X4800000Y-6235714D01*
X4809524Y-6216667D01*
X4828571Y-6207143D01*
X4857143Y-6207143D01*
X4876190Y-6216667D01*
X4952381Y-6416667D02*
X4961905Y-6407143D01*
X4980952Y-6378571D01*
X4990476Y-6359524D01*
X5000000Y-6330952D01*
X5009524Y-6283333D01*
X5009524Y-6245238D01*
X5000000Y-6197619D01*
X4990476Y-6169048D01*
X4980952Y-6150000D01*
X4961905Y-6121428D01*
X4952381Y-6111905D01*
D13*
X-10000Y-6514000D02*
G75*
G03*
X-10000Y-6514000I-40000J0D01*
G01*
D11*
X285714Y-6404476D02*
X304762Y-6404476D01*
X323810Y-6414000D01*
X333333Y-6423524D01*
X342857Y-6442571D01*
X352381Y-6480667D01*
X352381Y-6528286D01*
X342857Y-6566381D01*
X333333Y-6585428D01*
X323810Y-6594952D01*
X304762Y-6604476D01*
X285714Y-6604476D01*
X266667Y-6594952D01*
X257143Y-6585428D01*
X247619Y-6566381D01*
X238095Y-6528286D01*
X238095Y-6480667D01*
X247619Y-6442571D01*
X257143Y-6423524D01*
X266667Y-6414000D01*
X285714Y-6404476D01*
X438095Y-6585428D02*
X447619Y-6594952D01*
X438095Y-6604476D01*
X428571Y-6594952D01*
X438095Y-6585428D01*
X438095Y-6604476D01*
X561905Y-6490190D02*
X542857Y-6480667D01*
X533333Y-6471143D01*
X523809Y-6452095D01*
X523809Y-6442571D01*
X533333Y-6423524D01*
X542857Y-6414000D01*
X561905Y-6404476D01*
X600000Y-6404476D01*
X619048Y-6414000D01*
X628571Y-6423524D01*
X638095Y-6442571D01*
X638095Y-6452095D01*
X628571Y-6471143D01*
X619048Y-6480667D01*
X600000Y-6490190D01*
X561905Y-6490190D01*
X542857Y-6499714D01*
X533333Y-6509238D01*
X523809Y-6528286D01*
X523809Y-6566381D01*
X533333Y-6585428D01*
X542857Y-6594952D01*
X561905Y-6604476D01*
X600000Y-6604476D01*
X619048Y-6594952D01*
X628571Y-6585428D01*
X638095Y-6566381D01*
X638095Y-6528286D01*
X628571Y-6509238D01*
X619048Y-6499714D01*
X600000Y-6490190D01*
X761905Y-6404476D02*
X780952Y-6404476D01*
X800000Y-6414000D01*
X809524Y-6423524D01*
X819048Y-6442571D01*
X828571Y-6480667D01*
X828571Y-6528286D01*
X819048Y-6566381D01*
X809524Y-6585428D01*
X800000Y-6594952D01*
X780952Y-6604476D01*
X761905Y-6604476D01*
X742857Y-6594952D01*
X733333Y-6585428D01*
X723809Y-6566381D01*
X714286Y-6528286D01*
X714286Y-6480667D01*
X723809Y-6442571D01*
X733333Y-6423524D01*
X742857Y-6414000D01*
X761905Y-6404476D01*
X952381Y-6404476D02*
X971428Y-6404476D01*
X990476Y-6414000D01*
X1000000Y-6423524D01*
X1009524Y-6442571D01*
X1019048Y-6480667D01*
X1019048Y-6528286D01*
X1009524Y-6566381D01*
X1000000Y-6585428D01*
X990476Y-6594952D01*
X971428Y-6604476D01*
X952381Y-6604476D01*
X933333Y-6594952D01*
X923809Y-6585428D01*
X914286Y-6566381D01*
X904762Y-6528286D01*
X904762Y-6480667D01*
X914286Y-6442571D01*
X923809Y-6423524D01*
X933333Y-6414000D01*
X952381Y-6404476D01*
X1104762Y-6604476D02*
X1104762Y-6471143D01*
X1104762Y-6490190D02*
X1114286Y-6480667D01*
X1133333Y-6471143D01*
X1161905Y-6471143D01*
X1180952Y-6480667D01*
X1190476Y-6499714D01*
X1190476Y-6604476D01*
X1190476Y-6499714D02*
X1200000Y-6480667D01*
X1219048Y-6471143D01*
X1247619Y-6471143D01*
X1266667Y-6480667D01*
X1276190Y-6499714D01*
X1276190Y-6604476D01*
X1371429Y-6604476D02*
X1371429Y-6471143D01*
X1371429Y-6490190D02*
X1380952Y-6480667D01*
X1400000Y-6471143D01*
X1428571Y-6471143D01*
X1447619Y-6480667D01*
X1457143Y-6499714D01*
X1457143Y-6604476D01*
X1457143Y-6499714D02*
X1466667Y-6480667D01*
X1485714Y-6471143D01*
X1514286Y-6471143D01*
X1533333Y-6480667D01*
X1542857Y-6499714D01*
X1542857Y-6604476D01*
X1933333Y-6394952D02*
X1761905Y-6652095D01*
X2190476Y-6404476D02*
X2209524Y-6404476D01*
X2228571Y-6414000D01*
X2238095Y-6423524D01*
X2247619Y-6442571D01*
X2257143Y-6480667D01*
X2257143Y-6528286D01*
X2247619Y-6566381D01*
X2238095Y-6585428D01*
X2228571Y-6594952D01*
X2209524Y-6604476D01*
X2190476Y-6604476D01*
X2171429Y-6594952D01*
X2161905Y-6585428D01*
X2152381Y-6566381D01*
X2142857Y-6528286D01*
X2142857Y-6480667D01*
X2152381Y-6442571D01*
X2161905Y-6423524D01*
X2171429Y-6414000D01*
X2190476Y-6404476D01*
X2342857Y-6585428D02*
X2352381Y-6594952D01*
X2342857Y-6604476D01*
X2333333Y-6594952D01*
X2342857Y-6585428D01*
X2342857Y-6604476D01*
X2476190Y-6404476D02*
X2495238Y-6404476D01*
X2514286Y-6414000D01*
X2523810Y-6423524D01*
X2533333Y-6442571D01*
X2542857Y-6480667D01*
X2542857Y-6528286D01*
X2533333Y-6566381D01*
X2523810Y-6585428D01*
X2514286Y-6594952D01*
X2495238Y-6604476D01*
X2476190Y-6604476D01*
X2457143Y-6594952D01*
X2447619Y-6585428D01*
X2438095Y-6566381D01*
X2428571Y-6528286D01*
X2428571Y-6480667D01*
X2438095Y-6442571D01*
X2447619Y-6423524D01*
X2457143Y-6414000D01*
X2476190Y-6404476D01*
X2609524Y-6404476D02*
X2733333Y-6404476D01*
X2666667Y-6480667D01*
X2695238Y-6480667D01*
X2714286Y-6490190D01*
X2723810Y-6499714D01*
X2733333Y-6518762D01*
X2733333Y-6566381D01*
X2723810Y-6585428D01*
X2714286Y-6594952D01*
X2695238Y-6604476D01*
X2638095Y-6604476D01*
X2619048Y-6594952D01*
X2609524Y-6585428D01*
X2923809Y-6604476D02*
X2809524Y-6604476D01*
X2866667Y-6604476D02*
X2866667Y-6404476D01*
X2847619Y-6433048D01*
X2828571Y-6452095D01*
X2809524Y-6461619D01*
X3104762Y-6404476D02*
X3009524Y-6404476D01*
X3000000Y-6499714D01*
X3009524Y-6490190D01*
X3028571Y-6480667D01*
X3076190Y-6480667D01*
X3095238Y-6490190D01*
X3104762Y-6499714D01*
X3114286Y-6518762D01*
X3114286Y-6566381D01*
X3104762Y-6585428D01*
X3095238Y-6594952D01*
X3076190Y-6604476D01*
X3028571Y-6604476D01*
X3009524Y-6594952D01*
X3000000Y-6585428D01*
X3190476Y-6404476D02*
X3190476Y-6442571D01*
X3266667Y-6404476D02*
X3266667Y-6442571D01*
X3561905Y-6680667D02*
X3552381Y-6671143D01*
X3533333Y-6642571D01*
X3523809Y-6623524D01*
X3514286Y-6594952D01*
X3504762Y-6547333D01*
X3504762Y-6509238D01*
X3514286Y-6461619D01*
X3523809Y-6433048D01*
X3533333Y-6414000D01*
X3552381Y-6385428D01*
X3561905Y-6375905D01*
X3742857Y-6604476D02*
X3628571Y-6604476D01*
X3685714Y-6604476D02*
X3685714Y-6404476D01*
X3666667Y-6433048D01*
X3647619Y-6452095D01*
X3628571Y-6461619D01*
X3819048Y-6423524D02*
X3828571Y-6414000D01*
X3847619Y-6404476D01*
X3895238Y-6404476D01*
X3914286Y-6414000D01*
X3923809Y-6423524D01*
X3933333Y-6442571D01*
X3933333Y-6461619D01*
X3923809Y-6490190D01*
X3809524Y-6604476D01*
X3933333Y-6604476D01*
X4171428Y-6604476D02*
X4171428Y-6404476D01*
X4257143Y-6604476D02*
X4257143Y-6499714D01*
X4247619Y-6480667D01*
X4228571Y-6471143D01*
X4200000Y-6471143D01*
X4180952Y-6480667D01*
X4171428Y-6490190D01*
X4380952Y-6604476D02*
X4361905Y-6594952D01*
X4352381Y-6585428D01*
X4342857Y-6566381D01*
X4342857Y-6509238D01*
X4352381Y-6490190D01*
X4361905Y-6480667D01*
X4380952Y-6471143D01*
X4409524Y-6471143D01*
X4428571Y-6480667D01*
X4438095Y-6490190D01*
X4447619Y-6509238D01*
X4447619Y-6566381D01*
X4438095Y-6585428D01*
X4428571Y-6594952D01*
X4409524Y-6604476D01*
X4380952Y-6604476D01*
X4561905Y-6604476D02*
X4542857Y-6594952D01*
X4533333Y-6575905D01*
X4533333Y-6404476D01*
X4714286Y-6594952D02*
X4695238Y-6604476D01*
X4657143Y-6604476D01*
X4638095Y-6594952D01*
X4628571Y-6575905D01*
X4628571Y-6499714D01*
X4638095Y-6480667D01*
X4657143Y-6471143D01*
X4695238Y-6471143D01*
X4714286Y-6480667D01*
X4723810Y-6499714D01*
X4723810Y-6518762D01*
X4628571Y-6537809D01*
X4800000Y-6594952D02*
X4819048Y-6604476D01*
X4857143Y-6604476D01*
X4876190Y-6594952D01*
X4885714Y-6575905D01*
X4885714Y-6566381D01*
X4876190Y-6547333D01*
X4857143Y-6537809D01*
X4828571Y-6537809D01*
X4809524Y-6528286D01*
X4800000Y-6509238D01*
X4800000Y-6499714D01*
X4809524Y-6480667D01*
X4828571Y-6471143D01*
X4857143Y-6471143D01*
X4876190Y-6480667D01*
X4952381Y-6680667D02*
X4961905Y-6671143D01*
X4980952Y-6642571D01*
X4990476Y-6623524D01*
X5000000Y-6594952D01*
X5009524Y-6547333D01*
X5009524Y-6509238D01*
X5000000Y-6461619D01*
X4990476Y-6433048D01*
X4980952Y-6414000D01*
X4961905Y-6385428D01*
X4952381Y-6375905D01*
D14*
X-54450Y-6733550D02*
X-54450Y-6822450D01*
X-98900Y-6778000D02*
X-10000Y-6778000D01*
D11*
X285714Y-6668476D02*
X304762Y-6668476D01*
X323810Y-6678000D01*
X333333Y-6687524D01*
X342857Y-6706571D01*
X352381Y-6744667D01*
X352381Y-6792286D01*
X342857Y-6830381D01*
X333333Y-6849428D01*
X323810Y-6858952D01*
X304762Y-6868476D01*
X285714Y-6868476D01*
X266667Y-6858952D01*
X257143Y-6849428D01*
X247619Y-6830381D01*
X238095Y-6792286D01*
X238095Y-6744667D01*
X247619Y-6706571D01*
X257143Y-6687524D01*
X266667Y-6678000D01*
X285714Y-6668476D01*
X438095Y-6849428D02*
X447619Y-6858952D01*
X438095Y-6868476D01*
X428571Y-6858952D01*
X438095Y-6849428D01*
X438095Y-6868476D01*
X561905Y-6754190D02*
X542857Y-6744667D01*
X533333Y-6735143D01*
X523809Y-6716095D01*
X523809Y-6706571D01*
X533333Y-6687524D01*
X542857Y-6678000D01*
X561905Y-6668476D01*
X600000Y-6668476D01*
X619048Y-6678000D01*
X628571Y-6687524D01*
X638095Y-6706571D01*
X638095Y-6716095D01*
X628571Y-6735143D01*
X619048Y-6744667D01*
X600000Y-6754190D01*
X561905Y-6754190D01*
X542857Y-6763714D01*
X533333Y-6773238D01*
X523809Y-6792286D01*
X523809Y-6830381D01*
X533333Y-6849428D01*
X542857Y-6858952D01*
X561905Y-6868476D01*
X600000Y-6868476D01*
X619048Y-6858952D01*
X628571Y-6849428D01*
X638095Y-6830381D01*
X638095Y-6792286D01*
X628571Y-6773238D01*
X619048Y-6763714D01*
X600000Y-6754190D01*
X752381Y-6754190D02*
X733333Y-6744667D01*
X723809Y-6735143D01*
X714286Y-6716095D01*
X714286Y-6706571D01*
X723809Y-6687524D01*
X733333Y-6678000D01*
X752381Y-6668476D01*
X790476Y-6668476D01*
X809524Y-6678000D01*
X819048Y-6687524D01*
X828571Y-6706571D01*
X828571Y-6716095D01*
X819048Y-6735143D01*
X809524Y-6744667D01*
X790476Y-6754190D01*
X752381Y-6754190D01*
X733333Y-6763714D01*
X723809Y-6773238D01*
X714286Y-6792286D01*
X714286Y-6830381D01*
X723809Y-6849428D01*
X733333Y-6858952D01*
X752381Y-6868476D01*
X790476Y-6868476D01*
X809524Y-6858952D01*
X819048Y-6849428D01*
X828571Y-6830381D01*
X828571Y-6792286D01*
X819048Y-6773238D01*
X809524Y-6763714D01*
X790476Y-6754190D01*
X923809Y-6868476D02*
X961905Y-6868476D01*
X980952Y-6858952D01*
X990476Y-6849428D01*
X1009524Y-6820857D01*
X1019048Y-6782762D01*
X1019048Y-6706571D01*
X1009524Y-6687524D01*
X1000000Y-6678000D01*
X980952Y-6668476D01*
X942857Y-6668476D01*
X923809Y-6678000D01*
X914286Y-6687524D01*
X904762Y-6706571D01*
X904762Y-6754190D01*
X914286Y-6773238D01*
X923809Y-6782762D01*
X942857Y-6792286D01*
X980952Y-6792286D01*
X1000000Y-6782762D01*
X1009524Y-6773238D01*
X1019048Y-6754190D01*
X1104762Y-6868476D02*
X1104762Y-6735143D01*
X1104762Y-6754190D02*
X1114286Y-6744667D01*
X1133333Y-6735143D01*
X1161905Y-6735143D01*
X1180952Y-6744667D01*
X1190476Y-6763714D01*
X1190476Y-6868476D01*
X1190476Y-6763714D02*
X1200000Y-6744667D01*
X1219048Y-6735143D01*
X1247619Y-6735143D01*
X1266667Y-6744667D01*
X1276190Y-6763714D01*
X1276190Y-6868476D01*
X1371429Y-6868476D02*
X1371429Y-6735143D01*
X1371429Y-6754190D02*
X1380952Y-6744667D01*
X1400000Y-6735143D01*
X1428571Y-6735143D01*
X1447619Y-6744667D01*
X1457143Y-6763714D01*
X1457143Y-6868476D01*
X1457143Y-6763714D02*
X1466667Y-6744667D01*
X1485714Y-6735143D01*
X1514286Y-6735143D01*
X1533333Y-6744667D01*
X1542857Y-6763714D01*
X1542857Y-6868476D01*
X1933333Y-6658952D02*
X1761905Y-6916095D01*
X2190476Y-6668476D02*
X2209524Y-6668476D01*
X2228571Y-6678000D01*
X2238095Y-6687524D01*
X2247619Y-6706571D01*
X2257143Y-6744667D01*
X2257143Y-6792286D01*
X2247619Y-6830381D01*
X2238095Y-6849428D01*
X2228571Y-6858952D01*
X2209524Y-6868476D01*
X2190476Y-6868476D01*
X2171429Y-6858952D01*
X2161905Y-6849428D01*
X2152381Y-6830381D01*
X2142857Y-6792286D01*
X2142857Y-6744667D01*
X2152381Y-6706571D01*
X2161905Y-6687524D01*
X2171429Y-6678000D01*
X2190476Y-6668476D01*
X2342857Y-6849428D02*
X2352381Y-6858952D01*
X2342857Y-6868476D01*
X2333333Y-6858952D01*
X2342857Y-6849428D01*
X2342857Y-6868476D01*
X2476190Y-6668476D02*
X2495238Y-6668476D01*
X2514286Y-6678000D01*
X2523810Y-6687524D01*
X2533333Y-6706571D01*
X2542857Y-6744667D01*
X2542857Y-6792286D01*
X2533333Y-6830381D01*
X2523810Y-6849428D01*
X2514286Y-6858952D01*
X2495238Y-6868476D01*
X2476190Y-6868476D01*
X2457143Y-6858952D01*
X2447619Y-6849428D01*
X2438095Y-6830381D01*
X2428571Y-6792286D01*
X2428571Y-6744667D01*
X2438095Y-6706571D01*
X2447619Y-6687524D01*
X2457143Y-6678000D01*
X2476190Y-6668476D01*
X2609524Y-6668476D02*
X2733333Y-6668476D01*
X2666667Y-6744667D01*
X2695238Y-6744667D01*
X2714286Y-6754190D01*
X2723810Y-6763714D01*
X2733333Y-6782762D01*
X2733333Y-6830381D01*
X2723810Y-6849428D01*
X2714286Y-6858952D01*
X2695238Y-6868476D01*
X2638095Y-6868476D01*
X2619048Y-6858952D01*
X2609524Y-6849428D01*
X2914286Y-6668476D02*
X2819048Y-6668476D01*
X2809524Y-6763714D01*
X2819048Y-6754190D01*
X2838095Y-6744667D01*
X2885714Y-6744667D01*
X2904762Y-6754190D01*
X2914286Y-6763714D01*
X2923809Y-6782762D01*
X2923809Y-6830381D01*
X2914286Y-6849428D01*
X2904762Y-6858952D01*
X2885714Y-6868476D01*
X2838095Y-6868476D01*
X2819048Y-6858952D01*
X2809524Y-6849428D01*
X3047619Y-6668476D02*
X3066667Y-6668476D01*
X3085714Y-6678000D01*
X3095238Y-6687524D01*
X3104762Y-6706571D01*
X3114286Y-6744667D01*
X3114286Y-6792286D01*
X3104762Y-6830381D01*
X3095238Y-6849428D01*
X3085714Y-6858952D01*
X3066667Y-6868476D01*
X3047619Y-6868476D01*
X3028571Y-6858952D01*
X3019048Y-6849428D01*
X3009524Y-6830381D01*
X3000000Y-6792286D01*
X3000000Y-6744667D01*
X3009524Y-6706571D01*
X3019048Y-6687524D01*
X3028571Y-6678000D01*
X3047619Y-6668476D01*
X3190476Y-6668476D02*
X3190476Y-6706571D01*
X3266667Y-6668476D02*
X3266667Y-6706571D01*
X3561905Y-6944667D02*
X3552381Y-6935143D01*
X3533333Y-6906571D01*
X3523809Y-6887524D01*
X3514286Y-6858952D01*
X3504762Y-6811333D01*
X3504762Y-6773238D01*
X3514286Y-6725619D01*
X3523809Y-6697048D01*
X3533333Y-6678000D01*
X3552381Y-6649428D01*
X3561905Y-6639905D01*
X3628571Y-6687524D02*
X3638095Y-6678000D01*
X3657143Y-6668476D01*
X3704762Y-6668476D01*
X3723809Y-6678000D01*
X3733333Y-6687524D01*
X3742857Y-6706571D01*
X3742857Y-6725619D01*
X3733333Y-6754190D01*
X3619048Y-6868476D01*
X3742857Y-6868476D01*
X3914286Y-6735143D02*
X3914286Y-6868476D01*
X3866667Y-6658952D02*
X3819048Y-6801809D01*
X3942857Y-6801809D01*
X4171428Y-6868476D02*
X4171428Y-6668476D01*
X4257143Y-6868476D02*
X4257143Y-6763714D01*
X4247619Y-6744667D01*
X4228571Y-6735143D01*
X4200000Y-6735143D01*
X4180952Y-6744667D01*
X4171428Y-6754190D01*
X4380952Y-6868476D02*
X4361905Y-6858952D01*
X4352381Y-6849428D01*
X4342857Y-6830381D01*
X4342857Y-6773238D01*
X4352381Y-6754190D01*
X4361905Y-6744667D01*
X4380952Y-6735143D01*
X4409524Y-6735143D01*
X4428571Y-6744667D01*
X4438095Y-6754190D01*
X4447619Y-6773238D01*
X4447619Y-6830381D01*
X4438095Y-6849428D01*
X4428571Y-6858952D01*
X4409524Y-6868476D01*
X4380952Y-6868476D01*
X4561905Y-6868476D02*
X4542857Y-6858952D01*
X4533333Y-6839905D01*
X4533333Y-6668476D01*
X4714286Y-6858952D02*
X4695238Y-6868476D01*
X4657143Y-6868476D01*
X4638095Y-6858952D01*
X4628571Y-6839905D01*
X4628571Y-6763714D01*
X4638095Y-6744667D01*
X4657143Y-6735143D01*
X4695238Y-6735143D01*
X4714286Y-6744667D01*
X4723810Y-6763714D01*
X4723810Y-6782762D01*
X4628571Y-6801809D01*
X4800000Y-6858952D02*
X4819048Y-6868476D01*
X4857143Y-6868476D01*
X4876190Y-6858952D01*
X4885714Y-6839905D01*
X4885714Y-6830381D01*
X4876190Y-6811333D01*
X4857143Y-6801809D01*
X4828571Y-6801809D01*
X4809524Y-6792286D01*
X4800000Y-6773238D01*
X4800000Y-6763714D01*
X4809524Y-6744667D01*
X4828571Y-6735143D01*
X4857143Y-6735143D01*
X4876190Y-6744667D01*
X4952381Y-6944667D02*
X4961905Y-6935143D01*
X4980952Y-6906571D01*
X4990476Y-6887524D01*
X5000000Y-6858952D01*
X5009524Y-6811333D01*
X5009524Y-6773238D01*
X5000000Y-6725619D01*
X4990476Y-6697048D01*
X4980952Y-6678000D01*
X4961905Y-6649428D01*
X4952381Y-6639905D01*
D15*
X-24644Y-7077356D02*
X-24644Y-7006644D01*
X-95356Y-7006644D01*
X-95356Y-7077356D01*
X-24644Y-7077356D01*
D11*
X352381Y-7132476D02*
X238095Y-7132476D01*
X295238Y-7132476D02*
X295238Y-6932476D01*
X276190Y-6961048D01*
X257143Y-6980095D01*
X238095Y-6989619D01*
X438095Y-7113428D02*
X447619Y-7122952D01*
X438095Y-7132476D01*
X428571Y-7122952D01*
X438095Y-7113428D01*
X438095Y-7132476D01*
X571429Y-6932476D02*
X590476Y-6932476D01*
X609524Y-6942000D01*
X619048Y-6951524D01*
X628571Y-6970571D01*
X638095Y-7008667D01*
X638095Y-7056286D01*
X628571Y-7094381D01*
X619048Y-7113428D01*
X609524Y-7122952D01*
X590476Y-7132476D01*
X571429Y-7132476D01*
X552381Y-7122952D01*
X542857Y-7113428D01*
X533333Y-7094381D01*
X523809Y-7056286D01*
X523809Y-7008667D01*
X533333Y-6970571D01*
X542857Y-6951524D01*
X552381Y-6942000D01*
X571429Y-6932476D01*
X761905Y-6932476D02*
X780952Y-6932476D01*
X800000Y-6942000D01*
X809524Y-6951524D01*
X819048Y-6970571D01*
X828571Y-7008667D01*
X828571Y-7056286D01*
X819048Y-7094381D01*
X809524Y-7113428D01*
X800000Y-7122952D01*
X780952Y-7132476D01*
X761905Y-7132476D01*
X742857Y-7122952D01*
X733333Y-7113428D01*
X723809Y-7094381D01*
X714286Y-7056286D01*
X714286Y-7008667D01*
X723809Y-6970571D01*
X733333Y-6951524D01*
X742857Y-6942000D01*
X761905Y-6932476D01*
X952381Y-6932476D02*
X971428Y-6932476D01*
X990476Y-6942000D01*
X1000000Y-6951524D01*
X1009524Y-6970571D01*
X1019048Y-7008667D01*
X1019048Y-7056286D01*
X1009524Y-7094381D01*
X1000000Y-7113428D01*
X990476Y-7122952D01*
X971428Y-7132476D01*
X952381Y-7132476D01*
X933333Y-7122952D01*
X923809Y-7113428D01*
X914286Y-7094381D01*
X904762Y-7056286D01*
X904762Y-7008667D01*
X914286Y-6970571D01*
X923809Y-6951524D01*
X933333Y-6942000D01*
X952381Y-6932476D01*
X1104762Y-7132476D02*
X1104762Y-6999143D01*
X1104762Y-7018190D02*
X1114286Y-7008667D01*
X1133333Y-6999143D01*
X1161905Y-6999143D01*
X1180952Y-7008667D01*
X1190476Y-7027714D01*
X1190476Y-7132476D01*
X1190476Y-7027714D02*
X1200000Y-7008667D01*
X1219048Y-6999143D01*
X1247619Y-6999143D01*
X1266667Y-7008667D01*
X1276190Y-7027714D01*
X1276190Y-7132476D01*
X1371429Y-7132476D02*
X1371429Y-6999143D01*
X1371429Y-7018190D02*
X1380952Y-7008667D01*
X1400000Y-6999143D01*
X1428571Y-6999143D01*
X1447619Y-7008667D01*
X1457143Y-7027714D01*
X1457143Y-7132476D01*
X1457143Y-7027714D02*
X1466667Y-7008667D01*
X1485714Y-6999143D01*
X1514286Y-6999143D01*
X1533333Y-7008667D01*
X1542857Y-7027714D01*
X1542857Y-7132476D01*
X1933333Y-6922952D02*
X1761905Y-7180095D01*
X2190476Y-6932476D02*
X2209524Y-6932476D01*
X2228571Y-6942000D01*
X2238095Y-6951524D01*
X2247619Y-6970571D01*
X2257143Y-7008667D01*
X2257143Y-7056286D01*
X2247619Y-7094381D01*
X2238095Y-7113428D01*
X2228571Y-7122952D01*
X2209524Y-7132476D01*
X2190476Y-7132476D01*
X2171429Y-7122952D01*
X2161905Y-7113428D01*
X2152381Y-7094381D01*
X2142857Y-7056286D01*
X2142857Y-7008667D01*
X2152381Y-6970571D01*
X2161905Y-6951524D01*
X2171429Y-6942000D01*
X2190476Y-6932476D01*
X2342857Y-7113428D02*
X2352381Y-7122952D01*
X2342857Y-7132476D01*
X2333333Y-7122952D01*
X2342857Y-7113428D01*
X2342857Y-7132476D01*
X2476190Y-6932476D02*
X2495238Y-6932476D01*
X2514286Y-6942000D01*
X2523810Y-6951524D01*
X2533333Y-6970571D01*
X2542857Y-7008667D01*
X2542857Y-7056286D01*
X2533333Y-7094381D01*
X2523810Y-7113428D01*
X2514286Y-7122952D01*
X2495238Y-7132476D01*
X2476190Y-7132476D01*
X2457143Y-7122952D01*
X2447619Y-7113428D01*
X2438095Y-7094381D01*
X2428571Y-7056286D01*
X2428571Y-7008667D01*
X2438095Y-6970571D01*
X2447619Y-6951524D01*
X2457143Y-6942000D01*
X2476190Y-6932476D01*
X2609524Y-6932476D02*
X2733333Y-6932476D01*
X2666667Y-7008667D01*
X2695238Y-7008667D01*
X2714286Y-7018190D01*
X2723810Y-7027714D01*
X2733333Y-7046762D01*
X2733333Y-7094381D01*
X2723810Y-7113428D01*
X2714286Y-7122952D01*
X2695238Y-7132476D01*
X2638095Y-7132476D01*
X2619048Y-7122952D01*
X2609524Y-7113428D01*
X2828571Y-7132476D02*
X2866667Y-7132476D01*
X2885714Y-7122952D01*
X2895238Y-7113428D01*
X2914286Y-7084857D01*
X2923809Y-7046762D01*
X2923809Y-6970571D01*
X2914286Y-6951524D01*
X2904762Y-6942000D01*
X2885714Y-6932476D01*
X2847619Y-6932476D01*
X2828571Y-6942000D01*
X2819048Y-6951524D01*
X2809524Y-6970571D01*
X2809524Y-7018190D01*
X2819048Y-7037238D01*
X2828571Y-7046762D01*
X2847619Y-7056286D01*
X2885714Y-7056286D01*
X2904762Y-7046762D01*
X2914286Y-7037238D01*
X2923809Y-7018190D01*
X3095238Y-6999143D02*
X3095238Y-7132476D01*
X3047619Y-6922952D02*
X3000000Y-7065809D01*
X3123809Y-7065809D01*
X3190476Y-6932476D02*
X3190476Y-6970571D01*
X3266667Y-6932476D02*
X3266667Y-6970571D01*
X3561905Y-7208667D02*
X3552381Y-7199143D01*
X3533333Y-7170571D01*
X3523809Y-7151524D01*
X3514286Y-7122952D01*
X3504762Y-7075333D01*
X3504762Y-7037238D01*
X3514286Y-6989619D01*
X3523809Y-6961048D01*
X3533333Y-6942000D01*
X3552381Y-6913428D01*
X3561905Y-6903905D01*
X3723809Y-6999143D02*
X3723809Y-7132476D01*
X3676190Y-6922952D02*
X3628571Y-7065809D01*
X3752381Y-7065809D01*
X3857143Y-7018190D02*
X3838095Y-7008667D01*
X3828571Y-6999143D01*
X3819048Y-6980095D01*
X3819048Y-6970571D01*
X3828571Y-6951524D01*
X3838095Y-6942000D01*
X3857143Y-6932476D01*
X3895238Y-6932476D01*
X3914286Y-6942000D01*
X3923809Y-6951524D01*
X3933333Y-6970571D01*
X3933333Y-6980095D01*
X3923809Y-6999143D01*
X3914286Y-7008667D01*
X3895238Y-7018190D01*
X3857143Y-7018190D01*
X3838095Y-7027714D01*
X3828571Y-7037238D01*
X3819048Y-7056286D01*
X3819048Y-7094381D01*
X3828571Y-7113428D01*
X3838095Y-7122952D01*
X3857143Y-7132476D01*
X3895238Y-7132476D01*
X3914286Y-7122952D01*
X3923809Y-7113428D01*
X3933333Y-7094381D01*
X3933333Y-7056286D01*
X3923809Y-7037238D01*
X3914286Y-7027714D01*
X3895238Y-7018190D01*
X4171428Y-7132476D02*
X4171428Y-6932476D01*
X4257143Y-7132476D02*
X4257143Y-7027714D01*
X4247619Y-7008667D01*
X4228571Y-6999143D01*
X4200000Y-6999143D01*
X4180952Y-7008667D01*
X4171428Y-7018190D01*
X4380952Y-7132476D02*
X4361905Y-7122952D01*
X4352381Y-7113428D01*
X4342857Y-7094381D01*
X4342857Y-7037238D01*
X4352381Y-7018190D01*
X4361905Y-7008667D01*
X4380952Y-6999143D01*
X4409524Y-6999143D01*
X4428571Y-7008667D01*
X4438095Y-7018190D01*
X4447619Y-7037238D01*
X4447619Y-7094381D01*
X4438095Y-7113428D01*
X4428571Y-7122952D01*
X4409524Y-7132476D01*
X4380952Y-7132476D01*
X4561905Y-7132476D02*
X4542857Y-7122952D01*
X4533333Y-7103905D01*
X4533333Y-6932476D01*
X4714286Y-7122952D02*
X4695238Y-7132476D01*
X4657143Y-7132476D01*
X4638095Y-7122952D01*
X4628571Y-7103905D01*
X4628571Y-7027714D01*
X4638095Y-7008667D01*
X4657143Y-6999143D01*
X4695238Y-6999143D01*
X4714286Y-7008667D01*
X4723810Y-7027714D01*
X4723810Y-7046762D01*
X4628571Y-7065809D01*
X4800000Y-7122952D02*
X4819048Y-7132476D01*
X4857143Y-7132476D01*
X4876190Y-7122952D01*
X4885714Y-7103905D01*
X4885714Y-7094381D01*
X4876190Y-7075333D01*
X4857143Y-7065809D01*
X4828571Y-7065809D01*
X4809524Y-7056286D01*
X4800000Y-7037238D01*
X4800000Y-7027714D01*
X4809524Y-7008667D01*
X4828571Y-6999143D01*
X4857143Y-6999143D01*
X4876190Y-7008667D01*
X4952381Y-7208667D02*
X4961905Y-7199143D01*
X4980952Y-7170571D01*
X4990476Y-7151524D01*
X5000000Y-7122952D01*
X5009524Y-7075333D01*
X5009524Y-7037238D01*
X5000000Y-6989619D01*
X4990476Y-6961048D01*
X4980952Y-6942000D01*
X4961905Y-6913428D01*
X4952381Y-6903905D01*
D16*
X-60800Y-7356800D02*
X-10000Y-7306000D01*
X-60800Y-7255200D01*
X-111600Y-7306000D01*
X-60800Y-7356800D01*
D11*
X352381Y-7396476D02*
X238095Y-7396476D01*
X295238Y-7396476D02*
X295238Y-7196476D01*
X276190Y-7225048D01*
X257143Y-7244095D01*
X238095Y-7253619D01*
X438095Y-7377428D02*
X447619Y-7386952D01*
X438095Y-7396476D01*
X428571Y-7386952D01*
X438095Y-7377428D01*
X438095Y-7396476D01*
X571429Y-7196476D02*
X590476Y-7196476D01*
X609524Y-7206000D01*
X619048Y-7215524D01*
X628571Y-7234571D01*
X638095Y-7272667D01*
X638095Y-7320286D01*
X628571Y-7358381D01*
X619048Y-7377428D01*
X609524Y-7386952D01*
X590476Y-7396476D01*
X571429Y-7396476D01*
X552381Y-7386952D01*
X542857Y-7377428D01*
X533333Y-7358381D01*
X523809Y-7320286D01*
X523809Y-7272667D01*
X533333Y-7234571D01*
X542857Y-7215524D01*
X552381Y-7206000D01*
X571429Y-7196476D01*
X828571Y-7396476D02*
X714286Y-7396476D01*
X771428Y-7396476D02*
X771428Y-7196476D01*
X752381Y-7225048D01*
X733333Y-7244095D01*
X714286Y-7253619D01*
X1000000Y-7196476D02*
X961905Y-7196476D01*
X942857Y-7206000D01*
X933333Y-7215524D01*
X914286Y-7244095D01*
X904762Y-7282190D01*
X904762Y-7358381D01*
X914286Y-7377428D01*
X923809Y-7386952D01*
X942857Y-7396476D01*
X980952Y-7396476D01*
X1000000Y-7386952D01*
X1009524Y-7377428D01*
X1019048Y-7358381D01*
X1019048Y-7310762D01*
X1009524Y-7291714D01*
X1000000Y-7282190D01*
X980952Y-7272667D01*
X942857Y-7272667D01*
X923809Y-7282190D01*
X914286Y-7291714D01*
X904762Y-7310762D01*
X1104762Y-7396476D02*
X1104762Y-7263143D01*
X1104762Y-7282190D02*
X1114286Y-7272667D01*
X1133333Y-7263143D01*
X1161905Y-7263143D01*
X1180952Y-7272667D01*
X1190476Y-7291714D01*
X1190476Y-7396476D01*
X1190476Y-7291714D02*
X1200000Y-7272667D01*
X1219048Y-7263143D01*
X1247619Y-7263143D01*
X1266667Y-7272667D01*
X1276190Y-7291714D01*
X1276190Y-7396476D01*
X1371429Y-7396476D02*
X1371429Y-7263143D01*
X1371429Y-7282190D02*
X1380952Y-7272667D01*
X1400000Y-7263143D01*
X1428571Y-7263143D01*
X1447619Y-7272667D01*
X1457143Y-7291714D01*
X1457143Y-7396476D01*
X1457143Y-7291714D02*
X1466667Y-7272667D01*
X1485714Y-7263143D01*
X1514286Y-7263143D01*
X1533333Y-7272667D01*
X1542857Y-7291714D01*
X1542857Y-7396476D01*
X1933333Y-7186952D02*
X1761905Y-7444095D01*
X2190476Y-7196476D02*
X2209524Y-7196476D01*
X2228571Y-7206000D01*
X2238095Y-7215524D01*
X2247619Y-7234571D01*
X2257143Y-7272667D01*
X2257143Y-7320286D01*
X2247619Y-7358381D01*
X2238095Y-7377428D01*
X2228571Y-7386952D01*
X2209524Y-7396476D01*
X2190476Y-7396476D01*
X2171429Y-7386952D01*
X2161905Y-7377428D01*
X2152381Y-7358381D01*
X2142857Y-7320286D01*
X2142857Y-7272667D01*
X2152381Y-7234571D01*
X2161905Y-7215524D01*
X2171429Y-7206000D01*
X2190476Y-7196476D01*
X2342857Y-7377428D02*
X2352381Y-7386952D01*
X2342857Y-7396476D01*
X2333333Y-7386952D01*
X2342857Y-7377428D01*
X2342857Y-7396476D01*
X2476190Y-7196476D02*
X2495238Y-7196476D01*
X2514286Y-7206000D01*
X2523810Y-7215524D01*
X2533333Y-7234571D01*
X2542857Y-7272667D01*
X2542857Y-7320286D01*
X2533333Y-7358381D01*
X2523810Y-7377428D01*
X2514286Y-7386952D01*
X2495238Y-7396476D01*
X2476190Y-7396476D01*
X2457143Y-7386952D01*
X2447619Y-7377428D01*
X2438095Y-7358381D01*
X2428571Y-7320286D01*
X2428571Y-7272667D01*
X2438095Y-7234571D01*
X2447619Y-7215524D01*
X2457143Y-7206000D01*
X2476190Y-7196476D01*
X2714286Y-7263143D02*
X2714286Y-7396476D01*
X2666667Y-7186952D02*
X2619048Y-7329809D01*
X2742857Y-7329809D01*
X2857143Y-7196476D02*
X2876190Y-7196476D01*
X2895238Y-7206000D01*
X2904762Y-7215524D01*
X2914286Y-7234571D01*
X2923809Y-7272667D01*
X2923809Y-7320286D01*
X2914286Y-7358381D01*
X2904762Y-7377428D01*
X2895238Y-7386952D01*
X2876190Y-7396476D01*
X2857143Y-7396476D01*
X2838095Y-7386952D01*
X2828571Y-7377428D01*
X2819048Y-7358381D01*
X2809524Y-7320286D01*
X2809524Y-7272667D01*
X2819048Y-7234571D01*
X2828571Y-7215524D01*
X2838095Y-7206000D01*
X2857143Y-7196476D01*
X3047619Y-7196476D02*
X3066667Y-7196476D01*
X3085714Y-7206000D01*
X3095238Y-7215524D01*
X3104762Y-7234571D01*
X3114286Y-7272667D01*
X3114286Y-7320286D01*
X3104762Y-7358381D01*
X3095238Y-7377428D01*
X3085714Y-7386952D01*
X3066667Y-7396476D01*
X3047619Y-7396476D01*
X3028571Y-7386952D01*
X3019048Y-7377428D01*
X3009524Y-7358381D01*
X3000000Y-7320286D01*
X3000000Y-7272667D01*
X3009524Y-7234571D01*
X3019048Y-7215524D01*
X3028571Y-7206000D01*
X3047619Y-7196476D01*
X3190476Y-7196476D02*
X3190476Y-7234571D01*
X3266667Y-7196476D02*
X3266667Y-7234571D01*
X3561905Y-7472667D02*
X3552381Y-7463143D01*
X3533333Y-7434571D01*
X3523809Y-7415524D01*
X3514286Y-7386952D01*
X3504762Y-7339333D01*
X3504762Y-7301238D01*
X3514286Y-7253619D01*
X3523809Y-7225048D01*
X3533333Y-7206000D01*
X3552381Y-7177428D01*
X3561905Y-7167905D01*
X3742857Y-7396476D02*
X3628571Y-7396476D01*
X3685714Y-7396476D02*
X3685714Y-7196476D01*
X3666667Y-7225048D01*
X3647619Y-7244095D01*
X3628571Y-7253619D01*
X3819048Y-7215524D02*
X3828571Y-7206000D01*
X3847619Y-7196476D01*
X3895238Y-7196476D01*
X3914286Y-7206000D01*
X3923809Y-7215524D01*
X3933333Y-7234571D01*
X3933333Y-7253619D01*
X3923809Y-7282190D01*
X3809524Y-7396476D01*
X3933333Y-7396476D01*
X4171428Y-7396476D02*
X4171428Y-7196476D01*
X4257143Y-7396476D02*
X4257143Y-7291714D01*
X4247619Y-7272667D01*
X4228571Y-7263143D01*
X4200000Y-7263143D01*
X4180952Y-7272667D01*
X4171428Y-7282190D01*
X4380952Y-7396476D02*
X4361905Y-7386952D01*
X4352381Y-7377428D01*
X4342857Y-7358381D01*
X4342857Y-7301238D01*
X4352381Y-7282190D01*
X4361905Y-7272667D01*
X4380952Y-7263143D01*
X4409524Y-7263143D01*
X4428571Y-7272667D01*
X4438095Y-7282190D01*
X4447619Y-7301238D01*
X4447619Y-7358381D01*
X4438095Y-7377428D01*
X4428571Y-7386952D01*
X4409524Y-7396476D01*
X4380952Y-7396476D01*
X4561905Y-7396476D02*
X4542857Y-7386952D01*
X4533333Y-7367905D01*
X4533333Y-7196476D01*
X4714286Y-7386952D02*
X4695238Y-7396476D01*
X4657143Y-7396476D01*
X4638095Y-7386952D01*
X4628571Y-7367905D01*
X4628571Y-7291714D01*
X4638095Y-7272667D01*
X4657143Y-7263143D01*
X4695238Y-7263143D01*
X4714286Y-7272667D01*
X4723810Y-7291714D01*
X4723810Y-7310762D01*
X4628571Y-7329809D01*
X4800000Y-7386952D02*
X4819048Y-7396476D01*
X4857143Y-7396476D01*
X4876190Y-7386952D01*
X4885714Y-7367905D01*
X4885714Y-7358381D01*
X4876190Y-7339333D01*
X4857143Y-7329809D01*
X4828571Y-7329809D01*
X4809524Y-7320286D01*
X4800000Y-7301238D01*
X4800000Y-7291714D01*
X4809524Y-7272667D01*
X4828571Y-7263143D01*
X4857143Y-7263143D01*
X4876190Y-7272667D01*
X4952381Y-7472667D02*
X4961905Y-7463143D01*
X4980952Y-7434571D01*
X4990476Y-7415524D01*
X5000000Y-7386952D01*
X5009524Y-7339333D01*
X5009524Y-7301238D01*
X5000000Y-7253619D01*
X4990476Y-7225048D01*
X4980952Y-7206000D01*
X4961905Y-7177428D01*
X4952381Y-7167905D01*
D17*
X-130000Y-7510000D02*
X-10000Y-7630000D01*
X-10000Y-7510000D02*
X-130000Y-7630000D01*
X-10000Y-7570000D02*
G75*
G03*
X-10000Y-7570000I-60000J0D01*
G01*
D11*
X352381Y-7660476D02*
X238095Y-7660476D01*
X295238Y-7660476D02*
X295238Y-7460476D01*
X276190Y-7489048D01*
X257143Y-7508095D01*
X238095Y-7517619D01*
X438095Y-7641428D02*
X447619Y-7650952D01*
X438095Y-7660476D01*
X428571Y-7650952D01*
X438095Y-7641428D01*
X438095Y-7660476D01*
X523809Y-7479524D02*
X533333Y-7470000D01*
X552381Y-7460476D01*
X600000Y-7460476D01*
X619048Y-7470000D01*
X628571Y-7479524D01*
X638095Y-7498571D01*
X638095Y-7517619D01*
X628571Y-7546190D01*
X514286Y-7660476D01*
X638095Y-7660476D01*
X761905Y-7460476D02*
X780952Y-7460476D01*
X800000Y-7470000D01*
X809524Y-7479524D01*
X819048Y-7498571D01*
X828571Y-7536667D01*
X828571Y-7584286D01*
X819048Y-7622381D01*
X809524Y-7641428D01*
X800000Y-7650952D01*
X780952Y-7660476D01*
X761905Y-7660476D01*
X742857Y-7650952D01*
X733333Y-7641428D01*
X723809Y-7622381D01*
X714286Y-7584286D01*
X714286Y-7536667D01*
X723809Y-7498571D01*
X733333Y-7479524D01*
X742857Y-7470000D01*
X761905Y-7460476D01*
X952381Y-7460476D02*
X971428Y-7460476D01*
X990476Y-7470000D01*
X1000000Y-7479524D01*
X1009524Y-7498571D01*
X1019048Y-7536667D01*
X1019048Y-7584286D01*
X1009524Y-7622381D01*
X1000000Y-7641428D01*
X990476Y-7650952D01*
X971428Y-7660476D01*
X952381Y-7660476D01*
X933333Y-7650952D01*
X923809Y-7641428D01*
X914286Y-7622381D01*
X904762Y-7584286D01*
X904762Y-7536667D01*
X914286Y-7498571D01*
X923809Y-7479524D01*
X933333Y-7470000D01*
X952381Y-7460476D01*
X1104762Y-7660476D02*
X1104762Y-7527143D01*
X1104762Y-7546190D02*
X1114286Y-7536667D01*
X1133333Y-7527143D01*
X1161905Y-7527143D01*
X1180952Y-7536667D01*
X1190476Y-7555714D01*
X1190476Y-7660476D01*
X1190476Y-7555714D02*
X1200000Y-7536667D01*
X1219048Y-7527143D01*
X1247619Y-7527143D01*
X1266667Y-7536667D01*
X1276190Y-7555714D01*
X1276190Y-7660476D01*
X1371429Y-7660476D02*
X1371429Y-7527143D01*
X1371429Y-7546190D02*
X1380952Y-7536667D01*
X1400000Y-7527143D01*
X1428571Y-7527143D01*
X1447619Y-7536667D01*
X1457143Y-7555714D01*
X1457143Y-7660476D01*
X1457143Y-7555714D02*
X1466667Y-7536667D01*
X1485714Y-7527143D01*
X1514286Y-7527143D01*
X1533333Y-7536667D01*
X1542857Y-7555714D01*
X1542857Y-7660476D01*
X1933333Y-7450952D02*
X1761905Y-7708095D01*
X2190476Y-7460476D02*
X2209524Y-7460476D01*
X2228571Y-7470000D01*
X2238095Y-7479524D01*
X2247619Y-7498571D01*
X2257143Y-7536667D01*
X2257143Y-7584286D01*
X2247619Y-7622381D01*
X2238095Y-7641428D01*
X2228571Y-7650952D01*
X2209524Y-7660476D01*
X2190476Y-7660476D01*
X2171429Y-7650952D01*
X2161905Y-7641428D01*
X2152381Y-7622381D01*
X2142857Y-7584286D01*
X2142857Y-7536667D01*
X2152381Y-7498571D01*
X2161905Y-7479524D01*
X2171429Y-7470000D01*
X2190476Y-7460476D01*
X2342857Y-7641428D02*
X2352381Y-7650952D01*
X2342857Y-7660476D01*
X2333333Y-7650952D01*
X2342857Y-7641428D01*
X2342857Y-7660476D01*
X2476190Y-7460476D02*
X2495238Y-7460476D01*
X2514286Y-7470000D01*
X2523810Y-7479524D01*
X2533333Y-7498571D01*
X2542857Y-7536667D01*
X2542857Y-7584286D01*
X2533333Y-7622381D01*
X2523810Y-7641428D01*
X2514286Y-7650952D01*
X2495238Y-7660476D01*
X2476190Y-7660476D01*
X2457143Y-7650952D01*
X2447619Y-7641428D01*
X2438095Y-7622381D01*
X2428571Y-7584286D01*
X2428571Y-7536667D01*
X2438095Y-7498571D01*
X2447619Y-7479524D01*
X2457143Y-7470000D01*
X2476190Y-7460476D01*
X2714286Y-7527143D02*
X2714286Y-7660476D01*
X2666667Y-7450952D02*
X2619048Y-7593809D01*
X2742857Y-7593809D01*
X2800000Y-7460476D02*
X2933333Y-7460476D01*
X2847619Y-7660476D01*
X3000000Y-7479524D02*
X3009524Y-7470000D01*
X3028571Y-7460476D01*
X3076190Y-7460476D01*
X3095238Y-7470000D01*
X3104762Y-7479524D01*
X3114286Y-7498571D01*
X3114286Y-7517619D01*
X3104762Y-7546190D01*
X2990476Y-7660476D01*
X3114286Y-7660476D01*
X3190476Y-7460476D02*
X3190476Y-7498571D01*
X3266667Y-7460476D02*
X3266667Y-7498571D01*
X3561905Y-7736667D02*
X3552381Y-7727143D01*
X3533333Y-7698571D01*
X3523809Y-7679524D01*
X3514286Y-7650952D01*
X3504762Y-7603333D01*
X3504762Y-7565238D01*
X3514286Y-7517619D01*
X3523809Y-7489048D01*
X3533333Y-7470000D01*
X3552381Y-7441428D01*
X3561905Y-7431905D01*
X3628571Y-7479524D02*
X3638095Y-7470000D01*
X3657143Y-7460476D01*
X3704762Y-7460476D01*
X3723809Y-7470000D01*
X3733333Y-7479524D01*
X3742857Y-7498571D01*
X3742857Y-7517619D01*
X3733333Y-7546190D01*
X3619048Y-7660476D01*
X3742857Y-7660476D01*
X3980952Y-7660476D02*
X3980952Y-7460476D01*
X4066667Y-7660476D02*
X4066667Y-7555714D01*
X4057143Y-7536667D01*
X4038095Y-7527143D01*
X4009524Y-7527143D01*
X3990476Y-7536667D01*
X3980952Y-7546190D01*
X4190476Y-7660476D02*
X4171428Y-7650952D01*
X4161905Y-7641428D01*
X4152381Y-7622381D01*
X4152381Y-7565238D01*
X4161905Y-7546190D01*
X4171428Y-7536667D01*
X4190476Y-7527143D01*
X4219048Y-7527143D01*
X4238095Y-7536667D01*
X4247619Y-7546190D01*
X4257143Y-7565238D01*
X4257143Y-7622381D01*
X4247619Y-7641428D01*
X4238095Y-7650952D01*
X4219048Y-7660476D01*
X4190476Y-7660476D01*
X4371429Y-7660476D02*
X4352381Y-7650952D01*
X4342857Y-7631905D01*
X4342857Y-7460476D01*
X4523810Y-7650952D02*
X4504762Y-7660476D01*
X4466667Y-7660476D01*
X4447619Y-7650952D01*
X4438095Y-7631905D01*
X4438095Y-7555714D01*
X4447619Y-7536667D01*
X4466667Y-7527143D01*
X4504762Y-7527143D01*
X4523810Y-7536667D01*
X4533333Y-7555714D01*
X4533333Y-7574762D01*
X4438095Y-7593809D01*
X4609524Y-7650952D02*
X4628571Y-7660476D01*
X4666667Y-7660476D01*
X4685714Y-7650952D01*
X4695238Y-7631905D01*
X4695238Y-7622381D01*
X4685714Y-7603333D01*
X4666667Y-7593809D01*
X4638095Y-7593809D01*
X4619048Y-7584286D01*
X4609524Y-7565238D01*
X4609524Y-7555714D01*
X4619048Y-7536667D01*
X4638095Y-7527143D01*
X4666667Y-7527143D01*
X4685714Y-7536667D01*
X4761905Y-7736667D02*
X4771429Y-7727143D01*
X4790476Y-7698571D01*
X4800000Y-7679524D01*
X4809524Y-7650952D01*
X4819048Y-7603333D01*
X4819048Y-7565238D01*
X4809524Y-7517619D01*
X4800000Y-7489048D01*
X4790476Y-7470000D01*
X4771429Y-7441428D01*
X4761905Y-7431905D01*
D18*
X-175100Y-7751450D02*
X-10000Y-7916550D01*
X-10000Y-7751450D02*
X-175100Y-7916550D01*
X-92550Y-7751450D02*
X-92550Y-7916550D01*
X-175100Y-7834000D02*
X-10000Y-7834000D01*
D11*
X352381Y-7924476D02*
X238095Y-7924476D01*
X295238Y-7924476D02*
X295238Y-7724476D01*
X276190Y-7753048D01*
X257143Y-7772095D01*
X238095Y-7781619D01*
X438095Y-7905428D02*
X447619Y-7914952D01*
X438095Y-7924476D01*
X428571Y-7914952D01*
X438095Y-7905428D01*
X438095Y-7924476D01*
X619048Y-7724476D02*
X580952Y-7724476D01*
X561905Y-7734000D01*
X552381Y-7743524D01*
X533333Y-7772095D01*
X523809Y-7810190D01*
X523809Y-7886381D01*
X533333Y-7905428D01*
X542857Y-7914952D01*
X561905Y-7924476D01*
X600000Y-7924476D01*
X619048Y-7914952D01*
X628571Y-7905428D01*
X638095Y-7886381D01*
X638095Y-7838762D01*
X628571Y-7819714D01*
X619048Y-7810190D01*
X600000Y-7800667D01*
X561905Y-7800667D01*
X542857Y-7810190D01*
X533333Y-7819714D01*
X523809Y-7838762D01*
X819048Y-7724476D02*
X723809Y-7724476D01*
X714286Y-7819714D01*
X723809Y-7810190D01*
X742857Y-7800667D01*
X790476Y-7800667D01*
X809524Y-7810190D01*
X819048Y-7819714D01*
X828571Y-7838762D01*
X828571Y-7886381D01*
X819048Y-7905428D01*
X809524Y-7914952D01*
X790476Y-7924476D01*
X742857Y-7924476D01*
X723809Y-7914952D01*
X714286Y-7905428D01*
X1019048Y-7924476D02*
X904762Y-7924476D01*
X961905Y-7924476D02*
X961905Y-7724476D01*
X942857Y-7753048D01*
X923809Y-7772095D01*
X904762Y-7781619D01*
X1104762Y-7924476D02*
X1104762Y-7791143D01*
X1104762Y-7810190D02*
X1114286Y-7800667D01*
X1133333Y-7791143D01*
X1161905Y-7791143D01*
X1180952Y-7800667D01*
X1190476Y-7819714D01*
X1190476Y-7924476D01*
X1190476Y-7819714D02*
X1200000Y-7800667D01*
X1219048Y-7791143D01*
X1247619Y-7791143D01*
X1266667Y-7800667D01*
X1276190Y-7819714D01*
X1276190Y-7924476D01*
X1371429Y-7924476D02*
X1371429Y-7791143D01*
X1371429Y-7810190D02*
X1380952Y-7800667D01*
X1400000Y-7791143D01*
X1428571Y-7791143D01*
X1447619Y-7800667D01*
X1457143Y-7819714D01*
X1457143Y-7924476D01*
X1457143Y-7819714D02*
X1466667Y-7800667D01*
X1485714Y-7791143D01*
X1514286Y-7791143D01*
X1533333Y-7800667D01*
X1542857Y-7819714D01*
X1542857Y-7924476D01*
X1933333Y-7714952D02*
X1761905Y-7972095D01*
X2190476Y-7724476D02*
X2209524Y-7724476D01*
X2228571Y-7734000D01*
X2238095Y-7743524D01*
X2247619Y-7762571D01*
X2257143Y-7800667D01*
X2257143Y-7848286D01*
X2247619Y-7886381D01*
X2238095Y-7905428D01*
X2228571Y-7914952D01*
X2209524Y-7924476D01*
X2190476Y-7924476D01*
X2171429Y-7914952D01*
X2161905Y-7905428D01*
X2152381Y-7886381D01*
X2142857Y-7848286D01*
X2142857Y-7800667D01*
X2152381Y-7762571D01*
X2161905Y-7743524D01*
X2171429Y-7734000D01*
X2190476Y-7724476D01*
X2342857Y-7905428D02*
X2352381Y-7914952D01*
X2342857Y-7924476D01*
X2333333Y-7914952D01*
X2342857Y-7905428D01*
X2342857Y-7924476D01*
X2476190Y-7724476D02*
X2495238Y-7724476D01*
X2514286Y-7734000D01*
X2523810Y-7743524D01*
X2533333Y-7762571D01*
X2542857Y-7800667D01*
X2542857Y-7848286D01*
X2533333Y-7886381D01*
X2523810Y-7905428D01*
X2514286Y-7914952D01*
X2495238Y-7924476D01*
X2476190Y-7924476D01*
X2457143Y-7914952D01*
X2447619Y-7905428D01*
X2438095Y-7886381D01*
X2428571Y-7848286D01*
X2428571Y-7800667D01*
X2438095Y-7762571D01*
X2447619Y-7743524D01*
X2457143Y-7734000D01*
X2476190Y-7724476D01*
X2714286Y-7724476D02*
X2676190Y-7724476D01*
X2657143Y-7734000D01*
X2647619Y-7743524D01*
X2628571Y-7772095D01*
X2619048Y-7810190D01*
X2619048Y-7886381D01*
X2628571Y-7905428D01*
X2638095Y-7914952D01*
X2657143Y-7924476D01*
X2695238Y-7924476D01*
X2714286Y-7914952D01*
X2723810Y-7905428D01*
X2733333Y-7886381D01*
X2733333Y-7838762D01*
X2723810Y-7819714D01*
X2714286Y-7810190D01*
X2695238Y-7800667D01*
X2657143Y-7800667D01*
X2638095Y-7810190D01*
X2628571Y-7819714D01*
X2619048Y-7838762D01*
X2914286Y-7724476D02*
X2819048Y-7724476D01*
X2809524Y-7819714D01*
X2819048Y-7810190D01*
X2838095Y-7800667D01*
X2885714Y-7800667D01*
X2904762Y-7810190D01*
X2914286Y-7819714D01*
X2923809Y-7838762D01*
X2923809Y-7886381D01*
X2914286Y-7905428D01*
X2904762Y-7914952D01*
X2885714Y-7924476D01*
X2838095Y-7924476D01*
X2819048Y-7914952D01*
X2809524Y-7905428D01*
X3047619Y-7724476D02*
X3066667Y-7724476D01*
X3085714Y-7734000D01*
X3095238Y-7743524D01*
X3104762Y-7762571D01*
X3114286Y-7800667D01*
X3114286Y-7848286D01*
X3104762Y-7886381D01*
X3095238Y-7905428D01*
X3085714Y-7914952D01*
X3066667Y-7924476D01*
X3047619Y-7924476D01*
X3028571Y-7914952D01*
X3019048Y-7905428D01*
X3009524Y-7886381D01*
X3000000Y-7848286D01*
X3000000Y-7800667D01*
X3009524Y-7762571D01*
X3019048Y-7743524D01*
X3028571Y-7734000D01*
X3047619Y-7724476D01*
X3190476Y-7724476D02*
X3190476Y-7762571D01*
X3266667Y-7724476D02*
X3266667Y-7762571D01*
X3561905Y-8000667D02*
X3552381Y-7991143D01*
X3533333Y-7962571D01*
X3523809Y-7943524D01*
X3514286Y-7914952D01*
X3504762Y-7867333D01*
X3504762Y-7829238D01*
X3514286Y-7781619D01*
X3523809Y-7753048D01*
X3533333Y-7734000D01*
X3552381Y-7705428D01*
X3561905Y-7695905D01*
X3723809Y-7724476D02*
X3685714Y-7724476D01*
X3666667Y-7734000D01*
X3657143Y-7743524D01*
X3638095Y-7772095D01*
X3628571Y-7810190D01*
X3628571Y-7886381D01*
X3638095Y-7905428D01*
X3647619Y-7914952D01*
X3666667Y-7924476D01*
X3704762Y-7924476D01*
X3723809Y-7914952D01*
X3733333Y-7905428D01*
X3742857Y-7886381D01*
X3742857Y-7838762D01*
X3733333Y-7819714D01*
X3723809Y-7810190D01*
X3704762Y-7800667D01*
X3666667Y-7800667D01*
X3647619Y-7810190D01*
X3638095Y-7819714D01*
X3628571Y-7838762D01*
X3980952Y-7924476D02*
X3980952Y-7724476D01*
X4066667Y-7924476D02*
X4066667Y-7819714D01*
X4057143Y-7800667D01*
X4038095Y-7791143D01*
X4009524Y-7791143D01*
X3990476Y-7800667D01*
X3980952Y-7810190D01*
X4190476Y-7924476D02*
X4171428Y-7914952D01*
X4161905Y-7905428D01*
X4152381Y-7886381D01*
X4152381Y-7829238D01*
X4161905Y-7810190D01*
X4171428Y-7800667D01*
X4190476Y-7791143D01*
X4219048Y-7791143D01*
X4238095Y-7800667D01*
X4247619Y-7810190D01*
X4257143Y-7829238D01*
X4257143Y-7886381D01*
X4247619Y-7905428D01*
X4238095Y-7914952D01*
X4219048Y-7924476D01*
X4190476Y-7924476D01*
X4371429Y-7924476D02*
X4352381Y-7914952D01*
X4342857Y-7895905D01*
X4342857Y-7724476D01*
X4523810Y-7914952D02*
X4504762Y-7924476D01*
X4466667Y-7924476D01*
X4447619Y-7914952D01*
X4438095Y-7895905D01*
X4438095Y-7819714D01*
X4447619Y-7800667D01*
X4466667Y-7791143D01*
X4504762Y-7791143D01*
X4523810Y-7800667D01*
X4533333Y-7819714D01*
X4533333Y-7838762D01*
X4438095Y-7857809D01*
X4609524Y-7914952D02*
X4628571Y-7924476D01*
X4666667Y-7924476D01*
X4685714Y-7914952D01*
X4695238Y-7895905D01*
X4695238Y-7886381D01*
X4685714Y-7867333D01*
X4666667Y-7857809D01*
X4638095Y-7857809D01*
X4619048Y-7848286D01*
X4609524Y-7829238D01*
X4609524Y-7819714D01*
X4619048Y-7800667D01*
X4638095Y-7791143D01*
X4666667Y-7791143D01*
X4685714Y-7800667D01*
X4761905Y-8000667D02*
X4771429Y-7991143D01*
X4790476Y-7962571D01*
X4800000Y-7943524D01*
X4809524Y-7914952D01*
X4819048Y-7867333D01*
X4819048Y-7829238D01*
X4809524Y-7781619D01*
X4800000Y-7753048D01*
X4790476Y-7734000D01*
X4771429Y-7705428D01*
X4761905Y-7695905D01*
M02*
