M48
; DRILL file {KiCad (6.0.1)} date Wed Nov  9 23:00:38 2022
; FORMAT={-:-/ absolute / metric / decimal}
; #@! TF.CreationDate,2022-11-09T23:00:38+01:00
; #@! TF.GenerationSoftware,Kicad,Pcbnew,(6.0.1)
; #@! TF.FileFunction,Plated,1,2,PTH
FMAT,2
METRIC
; #@! TA.AperFunction,Plated,PTH,ViaDrill
T1C0.300
; #@! TA.AperFunction,Plated,PTH,ComponentDrill
T2C0.800
; #@! TA.AperFunction,Plated,PTH,ComponentDrill
T3C0.889
; #@! TA.AperFunction,Plated,PTH,ComponentDrill
T4C1.000
; #@! TA.AperFunction,Plated,PTH,ComponentDrill
T5C1.016
; #@! TA.AperFunction,Plated,PTH,ComponentDrill
T6C1.200
; #@! TA.AperFunction,Plated,PTH,ComponentDrill
T7C1.651
%
G90
G05
T1
X2.54Y-30.48
X2.54Y-37.084
X2.54Y-43.434
X5.08Y-8.89
X5.842Y-13.462
X6.604Y-17.78
X11.43Y-50.546
X16.764Y-50.546
X20.066Y-49.022
X20.828Y-26.162
X21.336Y-36.068
X21.59Y-21.082
X28.702Y-22.352
X28.702Y-26.162
X29.972Y-37.084
X30.988Y-50.292
X32.004Y-16.764
X32.258Y-23.622
X32.258Y-30.48
X34.036Y-35.814
X37.338Y-36.576
X39.878Y-36.576
X40.147Y-23.622
X42.672Y-49.53
X44.211Y-23.622
X44.211Y-27.432
X49.53Y-35.56
X51.323Y-16.764
X54.102Y-48.768
X54.356Y-53.086
X65.278Y-37.084
X65.278Y-49.022
X65.278Y-53.34
X66.04Y-16.256
X77.47Y-49.022
T2
X24.638Y-9.154
X24.638Y-16.774
X27.178Y-9.154
X27.178Y-16.774
X29.718Y-9.154
X29.718Y-16.774
X39.878Y-9.144
X39.878Y-16.764
X42.418Y-9.144
X42.418Y-16.764
X44.958Y-9.144
X44.958Y-16.764
T3
X14.986Y-42.241
X16.256Y-39.701
X17.526Y-42.241
X18.796Y-39.701
X20.066Y-42.241
X21.336Y-39.701
X22.606Y-42.241
X23.876Y-39.701
X38.1Y-42.164
X39.37Y-39.624
X40.64Y-42.164
X41.91Y-39.624
X43.18Y-42.164
X44.45Y-39.624
X45.72Y-42.164
X46.99Y-39.624
X60.96Y-42.164
X62.23Y-39.624
X63.5Y-42.164
X64.77Y-39.624
X66.04Y-42.164
X67.31Y-39.624
X68.58Y-42.164
X69.85Y-39.624
T4
X12.187Y-11.953
X12.187Y-14.493
X12.187Y-17.033
X12.187Y-19.573
X12.187Y-22.113
X12.187Y-24.653
X12.187Y-27.193
X12.187Y-29.733
X14.727Y-11.953
X14.727Y-14.493
X14.727Y-17.033
X14.727Y-19.573
X14.727Y-22.113
X14.727Y-24.653
X14.727Y-27.193
X14.727Y-29.733
X53.843Y-11.953
X53.843Y-14.493
X53.843Y-17.033
X53.843Y-19.573
X53.843Y-22.113
X53.843Y-24.653
X53.843Y-27.193
X53.843Y-29.733
X56.383Y-11.953
X56.383Y-14.493
X56.383Y-17.033
X56.383Y-19.573
X56.383Y-22.113
X56.383Y-24.653
X56.383Y-27.193
X56.383Y-29.733
X69.337Y-11.953
X69.337Y-14.493
X69.337Y-17.033
X69.337Y-19.573
X69.337Y-22.113
X69.337Y-24.653
X69.337Y-27.193
X69.337Y-29.733
X71.877Y-11.953
X71.877Y-14.493
X71.877Y-17.033
X71.877Y-19.573
X71.877Y-22.113
X71.877Y-24.653
X71.877Y-27.193
X71.877Y-29.733
T5
X13.106Y-52.706
X15.621Y-52.706
X23.216Y-52.706
X25.73Y-52.706
X36.22Y-52.629
X38.735Y-52.629
X46.33Y-52.629
X48.844Y-52.629
X59.08Y-52.629
X61.595Y-52.629
X69.19Y-52.629
X71.704Y-52.629
T6
X80.01Y-10.978
X80.01Y-14.478
T7
X11.557Y-44.705
X27.305Y-44.705
X34.671Y-44.628
X50.419Y-44.628
X57.531Y-44.628
X73.279Y-44.628
T0
M30
