%TF.GenerationSoftware,KiCad,Pcbnew,(6.0.1)*%
%TF.CreationDate,2022-11-09T22:58:21+01:00*%
%TF.ProjectId,stepgen_differential_bob,73746570-6765-46e5-9f64-696666657265,rev?*%
%TF.SameCoordinates,Original*%
%TF.FileFunction,Soldermask,Top*%
%TF.FilePolarity,Negative*%
%FSLAX46Y46*%
G04 Gerber Fmt 4.6, Leading zero omitted, Abs format (unit mm)*
G04 Created by KiCad (PCBNEW (6.0.1)) date 2022-11-09 22:58:21*
%MOMM*%
%LPD*%
G01*
G04 APERTURE LIST*
G04 Aperture macros list*
%AMRoundRect*
0 Rectangle with rounded corners*
0 $1 Rounding radius*
0 $2 $3 $4 $5 $6 $7 $8 $9 X,Y pos of 4 corners*
0 Add a 4 corners polygon primitive as box body*
4,1,4,$2,$3,$4,$5,$6,$7,$8,$9,$2,$3,0*
0 Add four circle primitives for the rounded corners*
1,1,$1+$1,$2,$3*
1,1,$1+$1,$4,$5*
1,1,$1+$1,$6,$7*
1,1,$1+$1,$8,$9*
0 Add four rect primitives between the rounded corners*
20,1,$1+$1,$2,$3,$4,$5,0*
20,1,$1+$1,$4,$5,$6,$7,0*
20,1,$1+$1,$6,$7,$8,$9,0*
20,1,$1+$1,$8,$9,$2,$3,0*%
%AMFreePoly0*
4,1,6,1.000000,0.000000,0.500000,-0.750000,-0.500000,-0.750000,-0.500000,0.750000,0.500000,0.750000,1.000000,0.000000,1.000000,0.000000,$1*%
G04 Aperture macros list end*
%ADD10C,2.700000*%
%ADD11RoundRect,0.150000X0.837500X0.150000X-0.837500X0.150000X-0.837500X-0.150000X0.837500X-0.150000X0*%
%ADD12R,1.700000X1.700000*%
%ADD13O,1.700000X1.700000*%
%ADD14R,2.400000X2.400000*%
%ADD15C,2.400000*%
%ADD16RoundRect,0.250000X-0.650000X0.412500X-0.650000X-0.412500X0.650000X-0.412500X0.650000X0.412500X0*%
%ADD17RoundRect,0.249999X-0.450001X-1.075001X0.450001X-1.075001X0.450001X1.075001X-0.450001X1.075001X0*%
%ADD18RoundRect,0.249999X1.075001X-0.450001X1.075001X0.450001X-1.075001X0.450001X-1.075001X-0.450001X0*%
%ADD19R,1.500000X1.500000*%
%ADD20FreePoly0,0.000000*%
%ADD21FreePoly0,180.000000*%
%ADD22RoundRect,0.249999X-1.075001X0.450001X-1.075001X-0.450001X1.075001X-0.450001X1.075001X0.450001X0*%
%ADD23R,1.600000X1.600000*%
%ADD24O,1.600000X1.600000*%
%ADD25C,3.251200*%
%ADD26R,1.778000X1.778000*%
%ADD27C,1.778000*%
%ADD28C,2.032000*%
%ADD29C,2.540000*%
G04 APERTURE END LIST*
D10*
%TO.C,Hole4*%
X3500000Y-52500000D03*
%TD*%
D11*
%TO.C,U1*%
X45641500Y-28702000D03*
X45641500Y-27432000D03*
X45641500Y-26162000D03*
X45641500Y-24892000D03*
X45641500Y-23622000D03*
X45641500Y-22352000D03*
X45641500Y-21082000D03*
X38716500Y-21082000D03*
X38716500Y-22352000D03*
X38716500Y-23622000D03*
X38716500Y-24892000D03*
X38716500Y-26162000D03*
X38716500Y-27432000D03*
X38716500Y-28702000D03*
%TD*%
D12*
%TO.C,J2*%
X53843000Y-11953000D03*
D13*
X56383000Y-11953000D03*
X53843000Y-14493000D03*
X56383000Y-14493000D03*
X53843000Y-17033000D03*
X56383000Y-17033000D03*
X53843000Y-19573000D03*
X56383000Y-19573000D03*
X53843000Y-22113000D03*
X56383000Y-22113000D03*
X53843000Y-24653000D03*
X56383000Y-24653000D03*
X53843000Y-27193000D03*
X56383000Y-27193000D03*
X53843000Y-29733000D03*
X56383000Y-29733000D03*
%TD*%
D14*
%TO.C,J4*%
X80010000Y-14478000D03*
D15*
X80010000Y-10978000D03*
%TD*%
D16*
%TO.C,C2*%
X23114000Y-31457500D03*
X23114000Y-34582500D03*
%TD*%
D17*
%TO.C,R4*%
X77356000Y-39116000D03*
X82156000Y-39116000D03*
%TD*%
D18*
%TO.C,R10*%
X18049000Y-6210000D03*
X18049000Y-1410000D03*
%TD*%
%TO.C,R9*%
X48529000Y-6210000D03*
X48529000Y-1410000D03*
%TD*%
D16*
%TO.C,C1*%
X38608000Y-31457500D03*
X38608000Y-34582500D03*
%TD*%
D17*
%TO.C,R3*%
X2680000Y-39116000D03*
X7480000Y-39116000D03*
%TD*%
D19*
%TO.C,JP1*%
X6280000Y-10922000D03*
X3880000Y-10922000D03*
D20*
X3080000Y-10922000D03*
D21*
X7080000Y-10922000D03*
%TD*%
D18*
%TO.C,R14*%
X34544000Y-30848000D03*
X34544000Y-26048000D03*
%TD*%
D12*
%TO.C,J3*%
X12187000Y-11953000D03*
D13*
X14727000Y-11953000D03*
X12187000Y-14493000D03*
X14727000Y-14493000D03*
X12187000Y-17033000D03*
X14727000Y-17033000D03*
X12187000Y-19573000D03*
X14727000Y-19573000D03*
X12187000Y-22113000D03*
X14727000Y-22113000D03*
X12187000Y-24653000D03*
X14727000Y-24653000D03*
X12187000Y-27193000D03*
X14727000Y-27193000D03*
X12187000Y-29733000D03*
X14727000Y-29733000D03*
%TD*%
D12*
%TO.C,J1*%
X69337000Y-11953000D03*
D13*
X71877000Y-11953000D03*
X69337000Y-14493000D03*
X71877000Y-14493000D03*
X69337000Y-17033000D03*
X71877000Y-17033000D03*
X69337000Y-19573000D03*
X71877000Y-19573000D03*
X69337000Y-22113000D03*
X71877000Y-22113000D03*
X69337000Y-24653000D03*
X71877000Y-24653000D03*
X69337000Y-27193000D03*
X71877000Y-27193000D03*
X69337000Y-29733000D03*
X71877000Y-29733000D03*
%TD*%
D10*
%TO.C,Hole1*%
X81500000Y-52500000D03*
%TD*%
%TO.C,Hole3*%
X3500000Y-3500000D03*
%TD*%
D22*
%TO.C,R13*%
X34544000Y-18682000D03*
X34544000Y-23482000D03*
%TD*%
D18*
%TO.C,R11*%
X24145000Y-6210000D03*
X24145000Y-1410000D03*
%TD*%
D23*
%TO.C,SW1*%
X44958000Y-9144000D03*
D24*
X42418000Y-9144000D03*
X39878000Y-9144000D03*
X39878000Y-16764000D03*
X42418000Y-16764000D03*
X44958000Y-16764000D03*
%TD*%
D18*
%TO.C,R7*%
X36337000Y-6200000D03*
X36337000Y-1400000D03*
%TD*%
D19*
%TO.C,JP3*%
X3880000Y-19558000D03*
X6280000Y-19558000D03*
D20*
X3080000Y-19558000D03*
D21*
X7080000Y-19558000D03*
%TD*%
D17*
%TO.C,R6*%
X77356000Y-32512000D03*
X82156000Y-32512000D03*
%TD*%
D18*
%TO.C,R8*%
X42433000Y-6200000D03*
X42433000Y-1400000D03*
%TD*%
D25*
%TO.C,J7*%
X13716000Y-48591000D03*
X25146000Y-48591000D03*
D26*
X14986000Y-42241000D03*
D27*
X16256000Y-39701000D03*
X17526000Y-42241000D03*
X18796000Y-39701000D03*
X20066000Y-42241000D03*
X21336000Y-39701000D03*
X22606000Y-42241000D03*
X23876000Y-39701000D03*
D28*
X25730200Y-52705800D03*
X23215600Y-52705800D03*
X15621000Y-52705800D03*
X13106400Y-52705800D03*
D29*
X11557000Y-44704800D03*
X27305000Y-44704800D03*
%TD*%
D17*
%TO.C,R1*%
X2680000Y-32512000D03*
X7480000Y-32512000D03*
%TD*%
D18*
%TO.C,R12*%
X30241000Y-6210000D03*
X30241000Y-1410000D03*
%TD*%
D11*
%TO.C,U2*%
X30147500Y-28702000D03*
X30147500Y-27432000D03*
X30147500Y-26162000D03*
X30147500Y-24892000D03*
X30147500Y-23622000D03*
X30147500Y-22352000D03*
X30147500Y-21082000D03*
X23222500Y-21082000D03*
X23222500Y-22352000D03*
X23222500Y-23622000D03*
X23222500Y-24892000D03*
X23222500Y-26162000D03*
X23222500Y-27432000D03*
X23222500Y-28702000D03*
%TD*%
D10*
%TO.C,Hole2*%
X81500000Y-3500000D03*
%TD*%
D25*
%TO.C,J5*%
X71120000Y-48514000D03*
X59690000Y-48514000D03*
D26*
X60960000Y-42164000D03*
D27*
X62230000Y-39624000D03*
X63500000Y-42164000D03*
X64770000Y-39624000D03*
X66040000Y-42164000D03*
X67310000Y-39624000D03*
X68580000Y-42164000D03*
X69850000Y-39624000D03*
D28*
X71704200Y-52628800D03*
X69189600Y-52628800D03*
X61595000Y-52628800D03*
X59080400Y-52628800D03*
D29*
X73279000Y-44627800D03*
X57531000Y-44627800D03*
%TD*%
D17*
%TO.C,R5*%
X2680000Y-45466000D03*
X7480000Y-45466000D03*
%TD*%
D25*
%TO.C,J6*%
X36830000Y-48514000D03*
X48260000Y-48514000D03*
D26*
X38100000Y-42164000D03*
D27*
X39370000Y-39624000D03*
X40640000Y-42164000D03*
X41910000Y-39624000D03*
X43180000Y-42164000D03*
X44450000Y-39624000D03*
X45720000Y-42164000D03*
X46990000Y-39624000D03*
D28*
X48844200Y-52628800D03*
X46329600Y-52628800D03*
X38735000Y-52628800D03*
X36220400Y-52628800D03*
D29*
X34671000Y-44627800D03*
X50419000Y-44627800D03*
%TD*%
D17*
%TO.C,R2*%
X77356000Y-45466000D03*
X82156000Y-45466000D03*
%TD*%
D19*
%TO.C,JP2*%
X3810000Y-15240000D03*
X6210000Y-15240000D03*
D20*
X3010000Y-15240000D03*
D21*
X7010000Y-15240000D03*
%TD*%
D23*
%TO.C,SW2*%
X29718000Y-9154000D03*
D24*
X27178000Y-9154000D03*
X24638000Y-9154000D03*
X24638000Y-16774000D03*
X27178000Y-16774000D03*
X29718000Y-16774000D03*
%TD*%
D22*
%TO.C,R15*%
X19050000Y-18682000D03*
X19050000Y-23482000D03*
%TD*%
M02*
